<svg width="70" height="81" viewBox="0 0 70 81" fill="none" xmlns="http://www.w3.org/2000/svg">
<mask id="path-1-inside-1" fill="white">
<path d="M66.4853 25.493L60.9398 22.5675L68.7927 14.7996C69.5718 14.0297 70 13.0058 70 11.9163C70 9.66761 68.1511 7.83871 65.8778 7.83871C64.7924 7.83871 63.7303 8.27377 62.9629 9.03289L58.1132 13.83V0H0V81H58.1132V71.8548H68.6792V61.4032H66.0377V55.9529C66.0377 55.4132 66.1474 54.8882 66.3615 54.3913L69.4641 47.2332C69.8188 46.409 70 45.5376 70 44.6439V31.2923C70 30.2755 69.7569 29.258 69.299 28.3515C68.678 27.1261 67.7061 26.1367 66.4853 25.493ZM64.8305 10.8803C65.1065 10.6085 65.4883 10.4516 65.8778 10.4516C66.6942 10.4516 67.3585 11.1087 67.3585 11.9163C67.3585 12.3079 67.205 12.6754 66.9251 12.9522L52.5645 27.1574C51.9151 26.3982 51.1135 25.775 50.1809 25.3712L64.8305 10.8803ZM53.8672 29.5636L54.4108 29.0252L60.024 31.8014C60.4748 32.024 60.7547 32.4718 60.7547 32.9694C60.7547 34.3569 60.5303 35.7303 60.0866 37.047L59.0561 40.1039C58.713 41.1232 57.7527 41.8064 56.6667 41.8064C55.2789 41.8064 54.1509 40.6895 54.1509 39.3167V31.3548C54.1509 30.729 54.0336 30.1371 53.8672 29.5636ZM44.9057 34.7332L38.9461 40.6269L36.1544 41.3165L36.8528 38.555L44.9057 30.5893V34.7332ZM22.4528 50.8853C15.7884 50.2276 10.566 44.649 10.566 37.8871C10.566 31.1252 15.7884 25.5466 22.4528 24.8889V50.8853ZM33.9688 39.1935H25.0943V24.8762C30.6811 25.3323 35.5959 28.666 38.0433 33.6832L34.468 37.2192L33.9688 39.1935ZM25.0943 41.8064H33.3084L32.5249 44.9093L39.3731 43.215C38.142 50.1497 32.2992 55.5318 25.0943 56.1226V41.8064ZM48.608 23.2329L45.9291 21.9079C45.2978 21.5954 44.9057 20.9683 44.9057 20.2723V20.1192C44.9057 19.1107 45.735 18.2903 46.7546 18.2903C47.057 18.2903 47.3569 18.365 47.6239 18.5059L51.3811 20.4879L48.608 23.2329ZM66.0377 69.2419H58.1132C56.6564 69.2419 55.4717 70.4138 55.4717 71.8548V78.3871H2.64151V2.6129H55.4717V16.4429L53.3345 18.557L48.8666 16.1999C48.2179 15.8579 47.4878 15.6774 46.7546 15.6774C44.2782 15.6774 42.2642 17.6696 42.2642 20.1192V20.2723C42.2642 21.9654 43.2167 23.4874 44.747 24.2465L46.4296 25.0784C45.7195 25.4107 45.1843 26.0429 44.9914 26.8122L40.0018 31.7478C36.7831 25.9007 30.6108 22.2097 23.7736 22.2097H22.4528V22.276C14.3303 22.9439 7.92453 29.6841 7.92453 37.8871C7.92453 46.0901 14.3303 52.8303 22.4528 53.4982V58.7903H23.7736C33.774 58.7903 41.9262 50.8904 42.2351 41.0709L44.9057 38.428V44.3256C44.9057 45.4668 45.2081 46.5946 45.7814 47.5885L49.6618 54.3026C50.0049 54.9022 50.1887 55.5816 50.1887 56.2699V61.4032H47.5472V71.8548H52.8302V69.2419H50.1887V64.0161H66.0377V69.2419ZM67.3585 44.6439C67.3585 45.1836 67.2489 45.7086 67.0348 46.2055L63.9321 53.3636C63.5774 54.1878 63.3962 55.0592 63.3962 55.9529V61.4032H52.8302V56.2699C52.8302 55.128 52.5277 54.0008 51.9544 53.007L48.0741 46.2929C47.731 45.6945 47.5472 45.0152 47.5472 44.3269V27.4355C49.7314 27.4355 51.5094 29.1942 51.5094 31.3548V39.3167C51.5094 42.1305 53.8233 44.4194 56.6667 44.4194C58.891 44.4194 60.8579 43.0172 61.5602 40.9312L62.592 37.8743C63.1254 36.2878 63.3962 34.6382 63.3962 32.9694C63.3962 31.4748 62.5559 30.1332 61.2062 29.4647L56.3804 27.0776L58.9877 24.4985L65.2413 27.7972C65.9771 28.1857 66.562 28.7808 66.9361 29.5208C67.2134 30.0669 67.3585 30.6793 67.3585 31.2923V44.6439Z"/>
<path d="M27.7358 45.7258H30.3774V48.3387H27.7358V45.7258Z"/>
<path d="M33.0189 45.7258H35.6604V48.3387H33.0189V45.7258Z"/>
<path d="M13.2075 33.9677H19.8113V36.5806H13.2075V33.9677Z"/>
<path d="M13.2075 39.1935H19.8113V41.8064H13.2075V39.1935Z"/>
<path d="M23.7736 66.629H21.1321V73.1613H18.4906V64.0161H15.8491V73.1613H13.2075V60.0968H10.566V73.1613H7.92453V56.1774H5.28302V75.7742H26.4151V73.1613H23.7736V66.629Z"/>
<path d="M38.3019 61.4032H40.3965L36.9811 64.7816L34.3396 62.1687L26.802 69.6247L28.6697 71.4721L34.3396 65.8635L36.9811 68.4764L42.2642 63.2506V65.3226H44.9057V58.7903H38.3019V61.4032Z"/>
<path d="M5.28302 5.22581H7.92453V7.83871H5.28302V5.22581Z"/>
<path d="M10.566 5.22581H29.0566V7.83871H10.566V5.22581Z"/>
<path d="M5.28302 10.4516H7.92453V13.0645H5.28302V10.4516Z"/>
<path d="M10.566 10.4516H29.0566V13.0645H10.566V10.4516Z"/>
<path d="M5.28302 15.6774H7.92453V18.2903H5.28302V15.6774Z"/>
<path d="M10.566 15.6774H29.0566V18.2903H10.566V15.6774Z"/>
<path d="M39.6226 5.22581H42.2642V7.83871H39.6226V5.22581Z"/>
<path d="M44.9057 5.22581H47.5472V7.83871H44.9057V5.22581Z"/>
<path d="M50.1887 5.22581H52.8302V7.83871H50.1887V5.22581Z"/>
</mask>
<path d="M66.4853 25.493L60.9398 22.5675L68.7927 14.7996C69.5718 14.0297 70 13.0058 70 11.9163C70 9.66761 68.1511 7.83871 65.8778 7.83871C64.7924 7.83871 63.7303 8.27377 62.9629 9.03289L58.1132 13.83V0H0V81H58.1132V71.8548H68.6792V61.4032H66.0377V55.9529C66.0377 55.4132 66.1474 54.8882 66.3615 54.3913L69.4641 47.2332C69.8188 46.409 70 45.5376 70 44.6439V31.2923C70 30.2755 69.7569 29.258 69.299 28.3515C68.678 27.1261 67.7061 26.1367 66.4853 25.493ZM64.8305 10.8803C65.1065 10.6085 65.4883 10.4516 65.8778 10.4516C66.6942 10.4516 67.3585 11.1087 67.3585 11.9163C67.3585 12.3079 67.205 12.6754 66.9251 12.9522L52.5645 27.1574C51.9151 26.3982 51.1135 25.775 50.1809 25.3712L64.8305 10.8803ZM53.8672 29.5636L54.4108 29.0252L60.024 31.8014C60.4748 32.024 60.7547 32.4718 60.7547 32.9694C60.7547 34.3569 60.5303 35.7303 60.0866 37.047L59.0561 40.1039C58.713 41.1232 57.7527 41.8064 56.6667 41.8064C55.2789 41.8064 54.1509 40.6895 54.1509 39.3167V31.3548C54.1509 30.729 54.0336 30.1371 53.8672 29.5636ZM44.9057 34.7332L38.9461 40.6269L36.1544 41.3165L36.8528 38.555L44.9057 30.5893V34.7332ZM22.4528 50.8853C15.7884 50.2276 10.566 44.649 10.566 37.8871C10.566 31.1252 15.7884 25.5466 22.4528 24.8889V50.8853ZM33.9688 39.1935H25.0943V24.8762C30.6811 25.3323 35.5959 28.666 38.0433 33.6832L34.468 37.2192L33.9688 39.1935ZM25.0943 41.8064H33.3084L32.5249 44.9093L39.3731 43.215C38.142 50.1497 32.2992 55.5318 25.0943 56.1226V41.8064ZM48.608 23.2329L45.9291 21.9079C45.2978 21.5954 44.9057 20.9683 44.9057 20.2723V20.1192C44.9057 19.1107 45.735 18.2903 46.7546 18.2903C47.057 18.2903 47.3569 18.365 47.6239 18.5059L51.3811 20.4879L48.608 23.2329ZM66.0377 69.2419H58.1132C56.6564 69.2419 55.4717 70.4138 55.4717 71.8548V78.3871H2.64151V2.6129H55.4717V16.4429L53.3345 18.557L48.8666 16.1999C48.2179 15.8579 47.4878 15.6774 46.7546 15.6774C44.2782 15.6774 42.2642 17.6696 42.2642 20.1192V20.2723C42.2642 21.9654 43.2167 23.4874 44.747 24.2465L46.4296 25.0784C45.7195 25.4107 45.1843 26.0429 44.9914 26.8122L40.0018 31.7478C36.7831 25.9007 30.6108 22.2097 23.7736 22.2097H22.4528V22.276C14.3303 22.9439 7.92453 29.6841 7.92453 37.8871C7.92453 46.0901 14.3303 52.8303 22.4528 53.4982V58.7903H23.7736C33.774 58.7903 41.9262 50.8904 42.2351 41.0709L44.9057 38.428V44.3256C44.9057 45.4668 45.2081 46.5946 45.7814 47.5885L49.6618 54.3026C50.0049 54.9022 50.1887 55.5816 50.1887 56.2699V61.4032H47.5472V71.8548H52.8302V69.2419H50.1887V64.0161H66.0377V69.2419ZM67.3585 44.6439C67.3585 45.1836 67.2489 45.7086 67.0348 46.2055L63.9321 53.3636C63.5774 54.1878 63.3962 55.0592 63.3962 55.9529V61.4032H52.8302V56.2699C52.8302 55.128 52.5277 54.0008 51.9544 53.007L48.0741 46.2929C47.731 45.6945 47.5472 45.0152 47.5472 44.3269V27.4355C49.7314 27.4355 51.5094 29.1942 51.5094 31.3548V39.3167C51.5094 42.1305 53.8233 44.4194 56.6667 44.4194C58.891 44.4194 60.8579 43.0172 61.5602 40.9312L62.592 37.8743C63.1254 36.2878 63.3962 34.6382 63.3962 32.9694C63.3962 31.4748 62.5559 30.1332 61.2062 29.4647L56.3804 27.0776L58.9877 24.4985L65.2413 27.7972C65.9771 28.1857 66.562 28.7808 66.9361 29.5208C67.2134 30.0669 67.3585 30.6793 67.3585 31.2923V44.6439Z" fill="#006298"/>
<path d="M27.7358 45.7258H30.3774V48.3387H27.7358V45.7258Z" fill="#006298"/>
<path d="M33.0189 45.7258H35.6604V48.3387H33.0189V45.7258Z" fill="#006298"/>
<path d="M13.2075 33.9677H19.8113V36.5806H13.2075V33.9677Z" fill="#006298"/>
<path d="M13.2075 39.1935H19.8113V41.8064H13.2075V39.1935Z" fill="#006298"/>
<path d="M23.7736 66.629H21.1321V73.1613H18.4906V64.0161H15.8491V73.1613H13.2075V60.0968H10.566V73.1613H7.92453V56.1774H5.28302V75.7742H26.4151V73.1613H23.7736V66.629Z" fill="#006298"/>
<path d="M38.3019 61.4032H40.3965L36.9811 64.7816L34.3396 62.1687L26.802 69.6247L28.6697 71.4721L34.3396 65.8635L36.9811 68.4764L42.2642 63.2506V65.3226H44.9057V58.7903H38.3019V61.4032Z" fill="#006298"/>
<path d="M5.28302 5.22581H7.92453V7.83871H5.28302V5.22581Z" fill="#006298"/>
<path d="M10.566 5.22581H29.0566V7.83871H10.566V5.22581Z" fill="#006298"/>
<path d="M5.28302 10.4516H7.92453V13.0645H5.28302V10.4516Z" fill="#006298"/>
<path d="M10.566 10.4516H29.0566V13.0645H10.566V10.4516Z" fill="#006298"/>
<path d="M5.28302 15.6774H7.92453V18.2903H5.28302V15.6774Z" fill="#006298"/>
<path d="M10.566 15.6774H29.0566V18.2903H10.566V15.6774Z" fill="#006298"/>
<path d="M39.6226 5.22581H42.2642V7.83871H39.6226V5.22581Z" fill="#006298"/>
<path d="M44.9057 5.22581H47.5472V7.83871H44.9057V5.22581Z" fill="#006298"/>
<path d="M50.1887 5.22581H52.8302V7.83871H50.1887V5.22581Z" fill="#006298"/>
<path d="M66.4853 25.493L60.9398 22.5675L68.7927 14.7996C69.5718 14.0297 70 13.0058 70 11.9163C70 9.66761 68.1511 7.83871 65.8778 7.83871C64.7924 7.83871 63.7303 8.27377 62.9629 9.03289L58.1132 13.83V0H0V81H58.1132V71.8548H68.6792V61.4032H66.0377V55.9529C66.0377 55.4132 66.1474 54.8882 66.3615 54.3913L69.4641 47.2332C69.8188 46.409 70 45.5376 70 44.6439V31.2923C70 30.2755 69.7569 29.258 69.299 28.3515C68.678 27.1261 67.7061 26.1367 66.4853 25.493ZM64.8305 10.8803C65.1065 10.6085 65.4883 10.4516 65.8778 10.4516C66.6942 10.4516 67.3585 11.1087 67.3585 11.9163C67.3585 12.3079 67.205 12.6754 66.9251 12.9522L52.5645 27.1574C51.9151 26.3982 51.1135 25.775 50.1809 25.3712L64.8305 10.8803ZM53.8672 29.5636L54.4108 29.0252L60.024 31.8014C60.4748 32.024 60.7547 32.4718 60.7547 32.9694C60.7547 34.3569 60.5303 35.7303 60.0866 37.047L59.0561 40.1039C58.713 41.1232 57.7527 41.8064 56.6667 41.8064C55.2789 41.8064 54.1509 40.6895 54.1509 39.3167V31.3548C54.1509 30.729 54.0336 30.1371 53.8672 29.5636ZM44.9057 34.7332L38.9461 40.6269L36.1544 41.3165L36.8528 38.555L44.9057 30.5893V34.7332ZM22.4528 50.8853C15.7884 50.2276 10.566 44.649 10.566 37.8871C10.566 31.1252 15.7884 25.5466 22.4528 24.8889V50.8853ZM33.9688 39.1935H25.0943V24.8762C30.6811 25.3323 35.5959 28.666 38.0433 33.6832L34.468 37.2192L33.9688 39.1935ZM25.0943 41.8064H33.3084L32.5249 44.9093L39.3731 43.215C38.142 50.1497 32.2992 55.5318 25.0943 56.1226V41.8064ZM48.608 23.2329L45.9291 21.9079C45.2978 21.5954 44.9057 20.9683 44.9057 20.2723V20.1192C44.9057 19.1107 45.735 18.2903 46.7546 18.2903C47.057 18.2903 47.3569 18.365 47.6239 18.5059L51.3811 20.4879L48.608 23.2329ZM66.0377 69.2419H58.1132C56.6564 69.2419 55.4717 70.4138 55.4717 71.8548V78.3871H2.64151V2.6129H55.4717V16.4429L53.3345 18.557L48.8666 16.1999C48.2179 15.8579 47.4878 15.6774 46.7546 15.6774C44.2782 15.6774 42.2642 17.6696 42.2642 20.1192V20.2723C42.2642 21.9654 43.2167 23.4874 44.747 24.2465L46.4296 25.0784C45.7195 25.4107 45.1843 26.0429 44.9914 26.8122L40.0018 31.7478C36.7831 25.9007 30.6108 22.2097 23.7736 22.2097H22.4528V22.276C14.3303 22.9439 7.92453 29.6841 7.92453 37.8871C7.92453 46.0901 14.3303 52.8303 22.4528 53.4982V58.7903H23.7736C33.774 58.7903 41.9262 50.8904 42.2351 41.0709L44.9057 38.428V44.3256C44.9057 45.4668 45.2081 46.5946 45.7814 47.5885L49.6618 54.3026C50.0049 54.9022 50.1887 55.5816 50.1887 56.2699V61.4032H47.5472V71.8548H52.8302V69.2419H50.1887V64.0161H66.0377V69.2419ZM67.3585 44.6439C67.3585 45.1836 67.2489 45.7086 67.0348 46.2055L63.9321 53.3636C63.5774 54.1878 63.3962 55.0592 63.3962 55.9529V61.4032H52.8302V56.2699C52.8302 55.128 52.5277 54.0008 51.9544 53.007L48.0741 46.2929C47.731 45.6945 47.5472 45.0152 47.5472 44.3269V27.4355C49.7314 27.4355 51.5094 29.1942 51.5094 31.3548V39.3167C51.5094 42.1305 53.8233 44.4194 56.6667 44.4194C58.891 44.4194 60.8579 43.0172 61.5602 40.9312L62.592 37.8743C63.1254 36.2878 63.3962 34.6382 63.3962 32.9694C63.3962 31.4748 62.5559 30.1332 61.2062 29.4647L56.3804 27.0776L58.9877 24.4985L65.2413 27.7972C65.9771 28.1857 66.562 28.7808 66.9361 29.5208C67.2134 30.0669 67.3585 30.6793 67.3585 31.2923V44.6439Z" stroke="white" stroke-width="0.4" mask="url(#path-1-inside-1)"/>
<path d="M27.7358 45.7258H30.3774V48.3387H27.7358V45.7258Z" stroke="white" stroke-width="0.4" mask="url(#path-1-inside-1)"/>
<path d="M33.0189 45.7258H35.6604V48.3387H33.0189V45.7258Z" stroke="white" stroke-width="0.4" mask="url(#path-1-inside-1)"/>
<path d="M13.2075 33.9677H19.8113V36.5806H13.2075V33.9677Z" stroke="white" stroke-width="0.4" mask="url(#path-1-inside-1)"/>
<path d="M13.2075 39.1935H19.8113V41.8064H13.2075V39.1935Z" stroke="white" stroke-width="0.4" mask="url(#path-1-inside-1)"/>
<path d="M23.7736 66.629H21.1321V73.1613H18.4906V64.0161H15.8491V73.1613H13.2075V60.0968H10.566V73.1613H7.92453V56.1774H5.28302V75.7742H26.4151V73.1613H23.7736V66.629Z" stroke="white" stroke-width="0.4" mask="url(#path-1-inside-1)"/>
<path d="M38.3019 61.4032H40.3965L36.9811 64.7816L34.3396 62.1687L26.802 69.6247L28.6697 71.4721L34.3396 65.8635L36.9811 68.4764L42.2642 63.2506V65.3226H44.9057V58.7903H38.3019V61.4032Z" stroke="white" stroke-width="0.4" mask="url(#path-1-inside-1)"/>
<path d="M5.28302 5.22581H7.92453V7.83871H5.28302V5.22581Z" stroke="white" stroke-width="0.4" mask="url(#path-1-inside-1)"/>
<path d="M10.566 5.22581H29.0566V7.83871H10.566V5.22581Z" stroke="white" stroke-width="0.4" mask="url(#path-1-inside-1)"/>
<path d="M5.28302 10.4516H7.92453V13.0645H5.28302V10.4516Z" stroke="white" stroke-width="0.4" mask="url(#path-1-inside-1)"/>
<path d="M10.566 10.4516H29.0566V13.0645H10.566V10.4516Z" stroke="white" stroke-width="0.4" mask="url(#path-1-inside-1)"/>
<path d="M5.28302 15.6774H7.92453V18.2903H5.28302V15.6774Z" stroke="white" stroke-width="0.4" mask="url(#path-1-inside-1)"/>
<path d="M10.566 15.6774H29.0566V18.2903H10.566V15.6774Z" stroke="white" stroke-width="0.4" mask="url(#path-1-inside-1)"/>
<path d="M39.6226 5.22581H42.2642V7.83871H39.6226V5.22581Z" stroke="white" stroke-width="0.4" mask="url(#path-1-inside-1)"/>
<path d="M44.9057 5.22581H47.5472V7.83871H44.9057V5.22581Z" stroke="white" stroke-width="0.4" mask="url(#path-1-inside-1)"/>
<path d="M50.1887 5.22581H52.8302V7.83871H50.1887V5.22581Z" stroke="white" stroke-width="0.4" mask="url(#path-1-inside-1)"/>
</svg>
