<svg width="69" height="69" viewBox="0 0 69 69" fill="none" xmlns="http://www.w3.org/2000/svg">
<path d="M23.2538 52.8166C23.2363 52.7303 23.2107 52.6454 23.177 52.5632C23.1433 52.4823 23.1015 52.4041 23.053 52.3314C23.0045 52.2572 22.9479 52.1885 22.8859 52.1265C22.8239 52.0645 22.7552 52.0079 22.6811 51.9594C22.6083 51.9108 22.5301 51.8691 22.4479 51.8354C22.3671 51.8017 22.2821 51.7747 22.1959 51.7585C22.0221 51.7235 21.8428 51.7235 21.6703 51.7585C21.5841 51.7747 21.4992 51.8017 21.417 51.8354C21.3361 51.8691 21.2579 51.9108 21.1852 51.9594C21.111 52.0079 21.0423 52.0645 20.9803 52.1265C20.9183 52.1885 20.8617 52.2572 20.8132 52.3314C20.7633 52.4041 20.7229 52.4823 20.6892 52.5632C20.6555 52.6454 20.6286 52.7303 20.6124 52.8166C20.5949 52.9028 20.5854 52.9918 20.5854 53.0794C20.5854 53.167 20.5949 53.2559 20.6124 53.3422C20.6286 53.4284 20.6555 53.5134 20.6892 53.5942C20.7229 53.6764 20.7633 53.7546 20.8132 53.8274C20.8617 53.9015 20.9183 53.9703 20.9803 54.0322C21.0423 54.0942 21.111 54.1509 21.1852 54.1994C21.2579 54.248 21.3361 54.2898 21.417 54.3235C21.4992 54.3572 21.5841 54.3842 21.6703 54.4003C21.7566 54.4179 21.8455 54.4273 21.9331 54.4273C22.0207 54.4273 22.1096 54.4179 22.1959 54.4003C22.2821 54.3842 22.3671 54.3572 22.4479 54.3235C22.5301 54.2898 22.6083 54.2479 22.6811 54.1994C22.7552 54.1509 22.8239 54.0942 22.8859 54.0322C22.9479 53.9703 23.0045 53.9015 23.053 53.8274C23.1015 53.7546 23.1433 53.6764 23.177 53.5942C23.2107 53.5134 23.2363 53.4284 23.2538 53.3422C23.2713 53.2559 23.2808 53.167 23.2808 53.0794C23.2808 52.9918 23.2713 52.9028 23.2538 52.8166Z" fill="#006298"/>
<path d="M61.9912 53.2317C61.986 53.2182 61.9806 53.2048 61.9749 53.1916C60.7346 50.2889 57.8255 49.2161 54.3828 50.392L44.9939 52.9887C44.4511 51.3446 43.0971 49.9457 41.1826 49.2351C41.1708 49.2308 41.1589 49.2265 41.1469 49.2224L30.8264 45.7193C29.9674 44.6089 27.2767 41.7675 22.2388 41.7675C18.718 41.7675 15.6034 44.183 13.8216 46.8158H1.34766C0.603346 46.8158 0 47.4192 0 48.1636V65.156C0 65.9004 0.603346 66.5038 1.34766 66.5038H9.36042C10.1047 66.5038 10.7081 65.9004 10.7081 65.156V63.9923H14.4657C15.2101 63.9923 15.8134 63.3889 15.8134 62.6446V62.2567C18.0039 62.4478 18.7243 62.8633 20.7361 64.0235C22.2832 64.9157 24.6215 66.2641 28.8324 68.1576C28.852 68.1664 28.8718 68.1748 28.8916 68.1826C29.6998 68.5005 31.2796 69 33.2274 69C34.5832 69 36.1175 68.7578 37.6923 68.0439L58.445 60.6128C58.4819 60.5996 58.5183 60.5847 58.5539 60.5683C60.5373 59.6557 63.4928 57.0838 61.9912 53.2317ZM8.01276 63.8081H2.69531V49.5113H8.01276V63.8081ZM13.1181 61.2966H10.7081V49.5113H13.1181V61.2966ZM57.477 58.0961L36.7336 65.5238C36.7154 65.5303 36.6907 65.54 36.6728 65.5473C36.6546 65.5547 36.6364 65.5625 36.6185 65.5707C33.7295 66.8985 30.9834 66.1036 29.9072 65.6851C25.8397 63.8547 23.6688 62.6028 22.0826 61.688C19.8773 60.4163 18.8146 59.8033 15.8134 59.5554V48.7002C17.0908 46.6063 19.5681 44.4629 22.2389 44.4629C26.819 44.4629 28.7598 47.4422 28.8361 47.5624C29.0006 47.83 29.2536 48.0318 29.551 48.1328L40.2615 51.7683C41.9721 52.4103 42.8761 53.8754 42.4606 55.3364C42.2688 56.0111 41.8257 56.5707 41.2131 56.912C40.6057 57.2505 39.9036 57.3342 39.2343 57.149L27.1603 53.3224C26.4503 53.0974 25.6932 53.4904 25.4684 54.2C25.2435 54.9097 25.6365 55.6671 26.346 55.8921L38.4411 59.7253C38.4539 59.7293 38.4667 59.7332 38.4796 59.7369C38.9625 59.8742 39.4541 59.9421 39.9428 59.9421C40.8374 59.9421 41.7221 59.7142 42.525 59.2668C43.7666 58.5749 44.6644 57.4409 45.0531 56.0736C45.0841 55.9644 45.1116 55.8553 45.1354 55.7461L55.254 52.9427C56.7154 52.4435 58.6338 52.2636 59.488 54.2309C60.372 56.5406 58.0743 57.8111 57.477 58.0961Z" fill="#006298"/>
<path d="M48.3889 17.7259C48.3714 17.6397 48.3458 17.5548 48.3108 17.4726C48.2771 17.3917 48.2367 17.3135 48.1868 17.2407C48.1383 17.1666 48.0817 17.0979 48.0197 17.0359C47.9577 16.9739 47.889 16.9173 47.8148 16.8688C47.7421 16.8202 47.6639 16.7785 47.583 16.7448C47.5008 16.7111 47.4159 16.6841 47.331 16.6679C47.1572 16.6329 46.9779 16.6329 46.8041 16.6679C46.7178 16.6841 46.6329 16.7111 46.5521 16.7448C46.4699 16.7785 46.3917 16.8202 46.3189 16.8688C46.2448 16.9173 46.1761 16.9739 46.1141 17.0359C46.0521 17.0979 45.9955 17.1666 45.947 17.2407C45.8985 17.3135 45.8567 17.3917 45.823 17.4726C45.7893 17.5548 45.7624 17.6397 45.7462 17.7259C45.7287 17.8122 45.7192 17.9012 45.7192 17.9888C45.7192 18.0764 45.7287 18.1653 45.7462 18.2516C45.7624 18.3378 45.7893 18.4227 45.823 18.5036C45.8567 18.5858 45.8985 18.664 45.947 18.7368C45.9955 18.8109 46.0521 18.8796 46.1141 18.9416C46.1761 19.0036 46.2448 19.0602 46.3189 19.1088C46.3917 19.1573 46.4699 19.1991 46.5521 19.2328C46.6329 19.2665 46.7178 19.2921 46.8041 19.3096C46.8904 19.3271 46.9793 19.3365 47.0669 19.3365C47.1545 19.3365 47.2434 19.3271 47.331 19.3096C47.4159 19.2921 47.5008 19.2665 47.583 19.2328C47.6639 19.1991 47.7421 19.1573 47.8148 19.1088C47.889 19.0602 47.9577 19.0036 48.0197 18.9416C48.0817 18.8796 48.1383 18.8109 48.1868 18.7368C48.2367 18.664 48.2771 18.5858 48.3108 18.5036C48.3458 18.4227 48.3714 18.3378 48.3889 18.2516C48.4065 18.1653 48.4146 18.0764 48.4146 17.9888C48.4146 17.9012 48.4065 17.8122 48.3889 17.7259Z" fill="#006298"/>
<path d="M67.6523 4.56462H59.6396C58.8953 4.56462 58.2919 5.16802 58.2919 5.9124V7.07607H54.5343C53.7899 7.07607 53.1866 7.67947 53.1866 8.42385V8.81174C50.9961 8.62049 50.2757 8.2051 48.264 7.04494C46.7169 6.15271 44.3786 4.80426 40.1676 2.91076C40.148 2.90187 40.1283 2.89365 40.1083 2.88583C38.7376 2.34645 35.1451 1.28521 31.3082 3.02425L25.8852 4.96612L21.3141 0.39473C20.7879 -0.131577 19.9345 -0.131577 19.4083 0.39473L4.40104 15.4032C3.91562 15.8888 3.82249 16.7307 4.40104 17.3093L30.0452 42.9558C30.4555 43.3663 31.4164 43.4905 31.9512 42.9558L45.6521 29.2538C46.0083 29.2845 46.378 29.3011 46.7611 29.3011C50.282 29.3011 53.3964 26.8856 55.1782 24.2528H67.6523C68.3967 24.2528 69 23.6494 69 22.905V5.9124C69 5.16802 68.3967 4.56462 67.6523 4.56462ZM20.3611 3.25377L23.4326 6.32563C22.5196 6.89035 21.464 7.19252 20.3611 7.19252C19.258 7.19252 18.2025 6.89048 17.2895 6.32563L20.3611 3.25377ZM10.3315 19.4282L7.25996 16.3562L10.3315 13.2843C10.8962 14.1975 11.1983 15.2532 11.1983 16.3562C11.1983 17.4592 10.8963 18.5149 10.3315 19.4282ZM30.9982 40.0966L27.9272 37.0253C29.8022 35.8681 32.194 35.8681 34.0692 37.0253L30.9982 40.0966ZM36.0109 35.0837C33.0328 32.9232 28.9637 32.9232 25.9856 35.0837L12.2731 21.3698C13.3255 19.9223 13.8937 18.1835 13.8937 16.3562C13.8937 14.5287 13.3256 12.7901 12.2731 11.3426L15.3481 8.26751C16.7954 9.31999 18.5339 9.88821 20.3612 9.88821C22.1885 9.88821 23.927 9.31999 25.3743 8.26751L28.2892 11.1826C27.6602 11.2755 27.0469 11.4828 26.475 11.8015C25.509 12.3398 24.7511 13.1459 24.2791 14.1212C22.7589 14.4027 21.3516 15.1387 20.2476 16.2427C17.2524 19.2383 17.2524 24.1123 20.2477 27.1078C21.7452 28.6055 23.7124 29.3544 25.6797 29.3544C27.6469 29.3544 29.6142 28.6056 31.1119 27.1078C32.0862 26.1334 32.7688 24.9357 33.1107 23.6306L37.6609 25.175C37.1487 27.5481 37.6733 30.0448 39.0885 32.0058L36.0109 35.0837ZM27.8174 21.8333C27.8292 21.8376 27.8411 21.8419 27.8531 21.846L30.5479 22.7607C30.3444 23.6792 29.8839 24.5237 29.206 25.2018C27.2616 27.1461 24.0978 27.1464 22.1537 25.2018C20.2093 23.2574 20.2093 20.0934 22.1537 18.1489C22.6227 17.6796 23.1762 17.3128 23.7793 17.0642C24.028 19.1346 25.5187 20.9802 27.8174 21.8333ZM41.0303 30.0636C40.5101 29.2159 40.2158 28.2483 40.1693 27.2608C40.8148 27.7275 41.6038 28.1848 42.546 28.5478L41.0303 30.0636ZM53.1865 22.3677C51.9092 24.4619 49.4319 26.6052 46.7611 26.6052C46.2614 26.6052 45.7931 26.5697 45.3552 26.5063C45.3535 26.506 45.3517 26.5058 45.35 26.5055C42.4396 26.0827 40.874 24.4284 40.358 23.7734C40.3305 23.733 40.2134 23.5797 40.196 23.5543C40.039 23.2737 39.7816 23.048 39.4533 22.9366L28.7384 19.2996C27.0285 18.6578 26.1246 17.1934 26.5389 15.733C26.5391 15.732 26.5394 15.7311 26.5397 15.7302C26.5401 15.7291 26.5403 15.7279 26.5406 15.7268C26.7332 15.0542 27.1755 14.4964 27.7868 14.1558C28.394 13.8174 29.096 13.7334 29.7655 13.919L41.8396 17.7455C42.5493 17.9707 43.3067 17.5774 43.5315 16.8678C43.7562 16.1582 43.3634 15.4008 42.6539 15.1758L33.0511 12.1325L32.9673 12.0487C32.9665 12.0479 32.9657 12.0469 32.9647 12.0461L27.9932 7.07418L32.2664 5.54392C32.2808 5.53866 32.2986 5.53206 32.3129 5.52626C32.3165 5.52478 32.3235 5.52208 32.327 5.5206C32.3454 5.51319 32.3634 5.50537 32.3813 5.49715C35.2702 4.16932 38.0162 4.9641 39.0925 5.38272C43.1602 7.21314 45.3312 8.46509 46.9174 9.37983C49.1227 10.6517 50.1854 11.2646 53.1865 11.5124V22.3677ZM58.2919 21.557H55.8819V9.77163H58.2919V21.557ZM66.3047 21.557H60.9872V7.26018H66.3047V21.557Z" fill="#006298"/>
</svg>
