<svg width="66" height="69" viewBox="0 0 66 69" fill="none" xmlns="http://www.w3.org/2000/svg">z
<path d="M40.2782 53.3278H25.7218C24.6247 53.3278 23.7323 54.2145 23.7323 55.3046V59.7404C23.7323 60.8305 24.6247 61.7173 25.7218 61.7173H40.2783C41.3754 61.7173 42.268 60.8306 42.268 59.7404V55.3046C42.2677 54.2146 41.3753 53.3278 40.2782 53.3278ZM39.7097 59.1757H26.2902V55.8695H39.7097V59.1757Z" fill="#006298"/>
<path d="M65.3524 42.3419L65.3729 42.3316L55.7816 23.4909C55.0062 21.9681 53.4581 21.0222 51.7409 21.0222H49.918V1.27078C49.918 0.568919 49.3454 0 48.639 0H17.3611C16.6547 0 16.0821 0.568919 16.0821 1.27078V21.0222H14.2592C12.5421 21.0222 10.9939 21.9681 10.2185 23.4909L0.627129 42.3316L0.647625 42.3419C0.236801 43.0141 0 43.8026 0 44.6448V64.5492C0 67.0034 2.00965 69 4.47975 69H61.5204C63.9905 69 66 67.0033 66 64.5492V44.6448C66 43.8026 65.7632 43.0141 65.3524 42.3419ZM49.9179 23.8462H51.7408C52.38 23.8462 52.9564 24.1986 53.2452 24.7657L61.0995 40.1941H55.7588V35.4468C55.7588 34.745 55.1862 34.176 54.4798 34.176H52.8975V27.3589C52.8975 26.657 52.3248 26.0881 51.6184 26.0881H49.9179V23.8462ZM53.2009 36.7175V40.194H46.4515C45.2934 40.194 44.2377 40.8719 43.7619 41.9207L41.919 45.9821C41.9015 46.0204 41.8629 46.0452 41.8205 46.0452H24.1796C24.1372 46.0452 24.0986 46.0204 24.0811 45.9819L22.2384 41.9209C21.7625 40.8719 20.7067 40.194 19.5486 40.194H12.7992V36.7175H53.2009ZM18.6401 2.54157H47.3599V26.088H18.6401V2.54157ZM50.3394 28.6295V34.1759H15.6606V28.6295H50.3394ZM12.7548 24.7657C13.0435 24.1984 13.62 23.8462 14.2592 23.8462H16.0821V26.088H14.3816C13.6751 26.088 13.1025 26.6569 13.1025 27.3587V34.1759H11.5202C10.8138 34.1759 10.2412 34.7448 10.2412 35.4467V40.194H4.9005L12.7548 24.7657ZM61.5204 66.1759H4.47975C3.57689 66.1759 2.84225 65.446 2.84225 64.5492V44.6448C2.84225 43.7479 3.57676 43.0181 4.47975 43.0181H19.5486C19.5909 43.0181 19.6297 43.043 19.6472 43.0815L21.49 47.1426C21.9659 48.1915 23.0215 48.8692 24.1796 48.8692H41.8204C42.9785 48.8692 44.0342 48.1914 44.51 47.1427L46.3529 43.0815C46.3704 43.0431 46.409 43.0181 46.4514 43.0181H61.5202C62.4231 43.0181 63.1575 43.748 63.1575 44.6448V64.5492C63.1576 65.4462 62.4232 66.1759 61.5204 66.1759Z" fill="#006298"/>
</svg>
