<svg width="69" height="70" viewBox="0 0 69 70" fill="none" xmlns="http://www.w3.org/2000/svg">
<path d="M31.7192 47.4778C32.2452 46.9432 32.2452 46.078 31.7192 45.5434C31.1926 45.0104 30.3395 45.0104 29.8124 45.5434C29.2868 46.078 29.2868 46.9432 29.8124 47.4778C30.3395 48.0108 31.1926 48.0108 31.7192 47.4778Z" fill="#006298"/>
<path d="M25.3369 15.0348C25.3369 23.325 31.9872 30.0702 40.1615 30.0702C48.3358 30.0702 54.9861 23.325 54.9861 15.0348C54.9861 6.74462 48.3358 0 40.1615 0C31.9872 0 25.3369 6.74462 25.3369 15.0348ZM52.291 15.0348C52.291 21.8179 46.8498 27.3363 40.1615 27.3363C33.4733 27.3363 28.032 21.8179 28.032 15.0348C28.032 8.25227 33.4733 2.73384 40.1615 2.73384C46.8498 2.73384 52.291 8.25227 52.291 15.0348Z" fill="#006298"/>
<path d="M15.5233 69.5958C16.0457 70.1299 16.8961 70.1358 17.4253 69.607L23.9593 63.0787C25.0694 61.9529 25.4069 60.2861 24.9188 58.8372L26.3242 57.4626C27.0809 56.7213 28.0773 56.3127 29.1304 56.3127H47.0467C50.2252 56.3127 53.2294 55.0748 55.5069 52.8269C55.6007 52.7345 54.7955 53.6964 67.7297 38.0186C69.648 35.7168 69.3611 32.2603 67.0893 30.3126C64.8318 28.3831 61.4501 28.6602 59.5264 30.9225L51.5738 39.2122C50.5696 37.9587 49.0383 37.1774 47.3837 37.1774H32.3553C30.2168 36.27 27.9477 35.8108 25.6065 35.8108C19.1168 35.8108 13.4501 38.8506 10.409 44.5501C9.12782 44.3039 7.77659 44.697 6.8045 45.6828L0.393234 52.2042C-0.130199 52.7367 -0.131252 53.5981 0.391128 54.1322L15.5233 69.5958ZM25.606 38.5441C27.6702 38.5441 29.666 38.9654 31.5391 39.7964C31.7097 39.8723 31.8935 39.9113 32.0794 39.9113H47.3837C48.845 39.9113 50.0793 41.1198 50.0793 42.6446C50.0793 44.1522 48.8703 45.3784 47.3837 45.3784H36.3879C35.6439 45.3784 35.0404 45.9904 35.0404 46.7451C35.0404 47.5002 35.6439 48.1117 36.3879 48.1117H47.3837C50.3563 48.1117 52.7744 45.6593 52.7744 42.6446C52.7744 42.4042 52.7576 42.166 52.7271 41.93C60.42 33.91 61.5048 32.7832 61.5512 32.7271C62.5117 31.5773 64.2168 31.4315 65.3511 32.4013C66.4864 33.3749 66.6301 35.1031 65.667 36.2594L53.5791 50.915C51.8139 52.6336 49.4964 53.5794 47.0467 53.5794H29.1304C27.3748 53.5794 25.7129 54.2603 24.4522 55.4956L23.3069 56.6166L12.7487 45.9093C15.2163 41.2144 19.8466 38.5441 25.606 38.5441ZM8.71182 47.6145C9.15626 47.1638 9.83873 47.0826 10.3806 47.4223C10.6139 47.5664 9.94404 46.948 22.0536 59.2121C22.5923 59.7585 22.5633 60.629 22.0609 61.1385L16.4906 66.7039L3.24842 53.1714L8.71182 47.6145Z" fill="#006298"/>
<path d="M36.8 22V19.86H35.2V17.92H36.8V16.36H35.2V13.88H36.8V7.72H41.36C43.2 7.72 44.54 8.09333 45.38 8.84C46.2333 9.58667 46.66 10.6133 46.66 11.92C46.66 12.6933 46.4867 13.42 46.14 14.1C45.7933 14.78 45.2133 15.3267 44.4 15.74C43.6 16.1533 42.5067 16.36 41.12 16.36H39.82V17.92H42.9V19.86H39.82V22H36.8ZM39.82 13.88H40.82C41.6733 13.88 42.3467 13.7333 42.84 13.44C43.3467 13.1467 43.6 12.6733 43.6 12.02C43.6 10.8067 42.8 10.2 41.2 10.2H39.82V13.88Z" fill="#006298"/>
</svg>
