<svg width="71" height="71" viewBox="0 0 71 71" fill="none" xmlns="http://www.w3.org/2000/svg">
<mask id="path-1-outside-1" maskUnits="userSpaceOnUse" x="0" y="0" width="71" height="71" fill="black">
<rect fill="white" width="71" height="71"/>
<path d="M65.1054 30.6053C63.9716 30.6074 62.8736 31.0023 61.9982 31.7227C61.1227 32.4432 60.524 33.4448 60.3038 34.5569H50.0168C49.8108 31.3559 48.5481 28.3138 46.4267 25.9078L53.7056 18.6285C54.7153 19.3065 55.9412 19.5843 57.1445 19.4079C58.3478 19.2315 59.4423 18.6134 60.2148 17.6741C60.9873 16.7348 61.3825 15.5416 61.3233 14.3269C61.2642 13.1122 60.7549 11.963 59.8948 11.1032C59.0346 10.2434 57.8852 9.73463 56.6705 9.67596C55.4557 9.61729 54.2626 10.0129 53.3236 10.7858C52.3846 11.5587 51.767 12.6535 51.591 13.8568C51.4151 15.0602 51.6934 16.2859 52.3718 17.2953L45.093 24.5741C42.6869 22.4527 39.6447 21.19 36.4437 20.984V10.6977C37.637 10.4634 38.7005 9.79323 39.4267 8.81777C40.153 7.8423 40.4901 6.63139 40.3724 5.42096C40.2547 4.21053 39.6906 3.08727 38.79 2.27C37.8894 1.45273 36.7168 1 35.5006 1C34.2844 1 33.1118 1.45273 32.2112 2.27C31.3106 3.08727 30.7465 4.21053 30.6288 5.42096C30.5111 6.63139 30.8482 7.8423 31.5745 8.81777C32.3007 9.79323 33.3642 10.4634 34.5575 10.6977V20.984C31.3565 21.19 28.3143 22.4527 25.9082 24.5741L18.6288 17.2953C19.3065 16.2867 19.5845 15.0619 19.4085 13.8595C19.2326 12.6572 18.6153 11.5634 17.6771 10.7912C16.7388 10.019 15.5466 9.62379 14.3329 9.68246C13.1191 9.74112 11.9707 10.2495 11.1113 11.1086C10.2518 11.9676 9.74296 13.1159 9.6838 14.3296C9.62465 15.5433 10.0194 16.7356 10.7912 17.6741C11.563 18.6127 12.6566 19.2304 13.8589 19.4068C15.0612 19.5832 16.2861 19.3058 17.2951 18.6285L24.5745 25.9078C22.4531 28.3138 21.1904 31.3559 20.9843 34.5569H10.6979C10.4636 33.3636 9.79339 32.3002 8.8179 31.5739C7.84241 30.8477 6.63149 30.5106 5.42104 30.6283C4.21059 30.746 3.0873 31.3101 2.27002 32.2107C1.45274 33.1113 1 34.2839 1 35.5C1 36.7161 1.45274 37.8887 2.27002 38.7893C3.0873 39.6899 4.21059 40.254 5.42104 40.3717C6.63149 40.4894 7.84241 40.1523 8.8179 39.4261C9.79339 38.6998 10.4636 37.6364 10.6979 36.4431H20.9843C21.1904 39.6441 22.4531 42.6862 24.5745 45.0922L17.2956 52.3715C16.2859 51.6935 15.06 51.4157 13.8567 51.5921C12.6534 51.7685 11.5589 52.3866 10.7864 53.3259C10.0139 54.2652 9.61869 55.4584 9.67785 56.6731C9.73701 57.8878 10.2463 59.037 11.1064 59.8968C11.9665 60.7566 13.116 61.2654 14.3307 61.324C15.5455 61.3827 16.7386 60.9871 17.6776 60.2142C18.6166 59.4413 19.2342 58.3465 19.4101 57.1432C19.5861 55.9398 19.3078 54.714 18.6294 53.7047L25.9082 46.4259C28.3183 48.5409 31.3582 49.8026 34.5575 50.016V60.3023C33.3642 60.5366 32.3007 61.2068 31.5745 62.1822C30.8482 63.1577 30.5111 64.3686 30.6288 65.579C30.7465 66.7895 31.3106 67.9127 32.2112 68.73C33.1118 69.5473 34.2844 70 35.5006 70C36.7168 70 37.8894 69.5473 38.79 68.73C39.6906 67.9127 40.2547 66.7895 40.3724 65.579C40.4901 64.3686 40.153 63.1577 39.4267 62.1822C38.7005 61.2068 37.637 60.5366 36.4437 60.3023V50.016C39.643 49.8026 42.6829 48.5409 45.093 46.4259L52.3724 53.7047C51.6939 54.7141 51.4155 55.9401 51.5914 57.1436C51.7674 58.3471 52.3851 59.442 53.3242 60.2149C54.2633 60.9879 55.4565 61.3836 56.6714 61.325C57.8863 61.2663 59.0359 60.7575 59.8961 59.8976C60.7563 59.0377 61.2657 57.8884 61.3248 56.6735C61.384 55.4587 60.9887 54.2653 60.2161 53.3259C59.4435 52.3865 58.3488 51.7684 57.1454 51.5919C55.9419 51.4155 54.7159 51.6934 53.7061 52.3715L46.4267 45.0922C48.5481 42.6862 49.8108 39.6441 50.0168 36.4431H60.3033C60.4822 37.3533 60.916 38.1939 61.5543 38.867C62.1926 39.5401 63.009 40.018 63.9084 40.2449C64.8079 40.4719 65.7533 40.4385 66.6345 40.1488C67.5157 39.859 68.2964 39.3248 68.8857 38.6084C69.475 37.892 69.8485 37.0228 69.9627 36.1023C70.077 35.1817 69.9273 34.2477 69.531 33.4089C69.1348 32.5702 68.5084 31.8613 67.7247 31.365C66.9411 30.8686 66.0325 30.6051 65.1049 30.6053H65.1054ZM54.3081 12.4389C54.8004 11.9468 55.448 11.6406 56.1408 11.5725C56.8335 11.5044 57.5284 11.6786 58.1071 12.0654C58.6857 12.4522 59.1124 13.0277 59.3144 13.6938C59.5163 14.3599 59.481 15.0754 59.2146 15.7184C58.9481 16.3615 58.4669 16.8922 57.853 17.2202C57.2391 17.5483 56.5304 17.6533 55.8478 17.5174C55.1651 17.3815 54.5507 17.0132 54.1092 16.4751C53.6677 15.937 53.4264 15.2624 53.4264 14.5664C53.4271 13.7685 53.7441 13.0033 54.3081 12.4389ZM32.4919 5.89569C32.4919 5.30065 32.6684 4.71896 32.999 4.2242C33.3296 3.72944 33.7995 3.34382 34.3492 3.1161C34.899 2.88839 35.5039 2.82881 36.0876 2.9449C36.6712 3.06098 37.2073 3.34753 37.628 3.76829C38.0488 4.18905 38.3354 4.72513 38.4514 5.30874C38.5675 5.89236 38.508 6.49729 38.2802 7.04704C38.0525 7.59679 37.6669 8.06667 37.1721 8.39726C36.6773 8.72785 36.0957 8.9043 35.5006 8.9043C34.703 8.9033 33.9383 8.586 33.3743 8.022C32.8102 7.45799 32.4929 6.69332 32.4919 5.89569ZM12.4391 16.6928C11.947 16.2006 11.6408 15.5529 11.5727 14.8602C11.5046 14.1675 11.6788 13.4726 12.0656 12.8939C12.4524 12.3153 13.0279 11.8886 13.694 11.6867C14.3601 11.4847 15.0757 11.52 15.7187 11.7864C16.3617 12.0529 16.8925 12.5341 17.2205 13.148C17.5486 13.7619 17.6536 14.4705 17.5177 15.1532C17.3818 15.8358 17.0134 16.4502 16.4753 16.8917C15.9372 17.3333 15.2627 17.5745 14.5666 17.5745C13.7687 17.5738 13.0036 17.2568 12.4391 16.6928ZM5.89578 38.5086C5.30072 38.5086 4.71903 38.3322 4.22426 38.0016C3.72949 37.671 3.34386 37.2011 3.11614 36.6513C2.88842 36.1016 2.82884 35.4967 2.94493 34.913C3.06102 34.3294 3.34757 33.7934 3.76834 33.3726C4.1891 32.9518 4.7252 32.6653 5.30882 32.5492C5.89244 32.4331 6.49738 32.4927 7.04714 32.7204C7.5969 32.9481 8.06679 33.3337 8.39739 33.8285C8.72798 34.3233 8.90444 34.9049 8.90444 35.5C8.90344 36.2976 8.58614 37.0623 8.02212 37.6263C7.4581 38.1903 6.69342 38.5076 5.89578 38.5086ZM16.6931 58.5611C16.2008 59.0532 15.5531 59.3594 14.8604 59.4275C14.1677 59.4956 13.4728 59.3214 12.8941 58.9346C12.3154 58.5478 11.8888 57.9723 11.6868 57.3062C11.4849 56.6401 11.5202 55.9246 11.7866 55.2816C12.0531 54.6385 12.5343 54.1078 13.1482 53.7798C13.7621 53.4517 14.4707 53.3467 15.1534 53.4826C15.8361 53.6185 16.4505 53.9868 16.892 54.5249C17.3335 55.063 17.5748 55.7376 17.5747 56.4336C17.5741 57.2315 17.2571 57.9966 16.6931 58.5611ZM32.0517 43.149C32.2348 43.0114 32.3617 42.8121 32.4089 42.588L32.611 41.6234C32.7249 41.0755 32.7022 40.5081 32.545 39.9711C32.3878 39.4341 32.1008 38.9441 31.7095 38.5442C30.9838 37.7995 30.4939 36.8574 30.301 35.8357C30.108 34.814 30.2207 33.7582 30.6248 32.8002C31.0289 31.8422 31.7065 31.0246 32.5729 30.4498C33.4393 29.8749 34.456 29.5683 35.4958 29.5683C36.5355 29.5683 37.5522 29.8749 38.4186 30.4498C39.2849 31.0246 39.9626 31.8422 40.3667 32.8002C40.7708 33.7582 40.8834 34.814 40.6905 35.8357C40.4976 36.8574 40.0077 37.7995 39.282 38.5442C38.8909 38.9439 38.6044 39.4337 38.4476 39.9705C38.2908 40.5073 38.2687 41.0744 38.3832 41.6218L38.5852 42.5853C38.6324 42.8094 38.7594 43.0087 38.9425 43.1463L42.6609 45.9334C40.5461 47.3646 38.051 48.1295 35.4974 48.1295C32.9437 48.1295 30.4487 47.3646 28.3338 45.9334L32.0517 43.149ZM38.506 65.1043C38.506 65.6995 38.3295 66.2813 37.9987 66.7761C37.668 67.271 37.1979 67.6566 36.648 67.8842C36.098 68.1118 35.4929 68.1712 34.9092 68.0549C34.3255 67.9385 33.7894 67.6516 33.3688 67.2306C32.9481 66.8095 32.6618 66.2731 32.5461 65.6893C32.4304 65.1054 32.4904 64.5004 32.7187 63.9507C32.9469 63.401 33.333 62.9314 33.8282 62.6012C34.3234 62.271 34.9054 62.0951 35.5006 62.0957C36.2982 62.0967 37.0629 62.414 37.6269 62.978C38.191 63.542 38.5083 64.3067 38.5093 65.1043H38.506ZM58.5621 54.3072C59.0542 54.7994 59.3604 55.4471 59.4285 56.1398C59.4966 56.8325 59.3224 57.5274 58.9356 58.1061C58.5488 58.6847 57.9733 59.1114 57.3072 59.3133C56.6411 59.5153 55.9255 59.48 55.2825 59.2136C54.6395 58.9471 54.1087 58.4659 53.7807 57.852C53.4526 57.2381 53.3476 56.5295 53.4835 55.8468C53.6194 55.1642 53.9877 54.5498 54.5259 54.1082C55.064 53.6667 55.7385 53.4255 56.4346 53.4255C57.2325 53.4262 57.9976 53.7432 58.5621 54.3072ZM44.1768 44.7117L40.3614 41.8524L40.2326 41.237C40.1817 40.9925 40.1919 40.7391 40.2622 40.4995C40.3325 40.2598 40.4608 40.0411 40.6357 39.8628C41.6203 38.8529 42.2852 37.5751 42.5473 36.1893C42.8094 34.8035 42.657 33.3711 42.1092 32.0714C41.5614 30.7717 40.6426 29.6624 39.4676 28.8823C38.2926 28.1021 36.9136 27.6857 35.5032 27.6852C34.0928 27.6847 32.7135 28.1001 31.5379 28.8794C30.3624 29.6587 29.4427 30.7673 28.8939 32.0666C28.3452 33.3658 28.1918 34.7981 28.4528 36.1841C28.7139 37.5701 29.3779 38.8484 30.3617 39.8591C30.5373 40.0377 30.6662 40.2567 30.7372 40.4969C30.8082 40.7371 30.8189 40.9911 30.7685 41.2365L30.6397 41.8524L26.8244 44.7117C24.9757 42.9731 23.6921 40.7192 23.1399 38.2423C22.5878 35.7653 22.7925 33.1796 23.7276 30.8204C24.6628 28.4613 26.2851 26.4375 28.3843 25.0115C30.4836 23.5854 32.9628 22.823 35.5006 22.823C38.0384 22.823 40.5176 23.5854 42.6168 25.0115C44.7161 26.4375 46.3384 28.4613 47.2736 30.8204C48.2087 33.1796 48.4134 35.7653 47.8613 38.2423C47.3091 40.7192 46.0255 42.9731 44.1768 44.7117ZM65.1049 38.5086C64.5099 38.5084 63.9283 38.3318 63.4336 38.001C62.939 37.6703 62.5536 37.2004 62.326 36.6506C62.0984 36.1008 62.039 35.4959 62.1552 34.9124C62.2714 34.3288 62.5581 33.7929 62.9789 33.3722C63.3997 32.9516 63.9358 32.6651 64.5194 32.5491C65.103 32.4331 65.7079 32.4928 66.2576 32.7205C66.8073 32.9483 67.2771 33.3339 67.6076 33.8286C67.9382 34.3234 68.1146 34.905 68.1146 35.5C68.1136 36.2977 67.7962 37.0625 67.2321 37.6265C66.668 38.1905 65.9031 38.5077 65.1054 38.5086H65.1049Z"/>
</mask>
<path d="M65.1054 30.6053C63.9716 30.6074 62.8736 31.0023 61.9982 31.7227C61.1227 32.4432 60.524 33.4448 60.3038 34.5569H50.0168C49.8108 31.3559 48.5481 28.3138 46.4267 25.9078L53.7056 18.6285C54.7153 19.3065 55.9412 19.5843 57.1445 19.4079C58.3478 19.2315 59.4423 18.6134 60.2148 17.6741C60.9873 16.7348 61.3825 15.5416 61.3233 14.3269C61.2642 13.1122 60.7549 11.963 59.8948 11.1032C59.0346 10.2434 57.8852 9.73463 56.6705 9.67596C55.4557 9.61729 54.2626 10.0129 53.3236 10.7858C52.3846 11.5587 51.767 12.6535 51.591 13.8568C51.4151 15.0602 51.6934 16.2859 52.3718 17.2953L45.093 24.5741C42.6869 22.4527 39.6447 21.19 36.4437 20.984V10.6977C37.637 10.4634 38.7005 9.79323 39.4267 8.81777C40.153 7.8423 40.4901 6.63139 40.3724 5.42096C40.2547 4.21053 39.6906 3.08727 38.79 2.27C37.8894 1.45273 36.7168 1 35.5006 1C34.2844 1 33.1118 1.45273 32.2112 2.27C31.3106 3.08727 30.7465 4.21053 30.6288 5.42096C30.5111 6.63139 30.8482 7.8423 31.5745 8.81777C32.3007 9.79323 33.3642 10.4634 34.5575 10.6977V20.984C31.3565 21.19 28.3143 22.4527 25.9082 24.5741L18.6288 17.2953C19.3065 16.2867 19.5845 15.0619 19.4085 13.8595C19.2326 12.6572 18.6153 11.5634 17.6771 10.7912C16.7388 10.019 15.5466 9.62379 14.3329 9.68246C13.1191 9.74112 11.9707 10.2495 11.1113 11.1086C10.2518 11.9676 9.74296 13.1159 9.6838 14.3296C9.62465 15.5433 10.0194 16.7356 10.7912 17.6741C11.563 18.6127 12.6566 19.2304 13.8589 19.4068C15.0612 19.5832 16.2861 19.3058 17.2951 18.6285L24.5745 25.9078C22.4531 28.3138 21.1904 31.3559 20.9843 34.5569H10.6979C10.4636 33.3636 9.79339 32.3002 8.8179 31.5739C7.84241 30.8477 6.63149 30.5106 5.42104 30.6283C4.21059 30.746 3.0873 31.3101 2.27002 32.2107C1.45274 33.1113 1 34.2839 1 35.5C1 36.7161 1.45274 37.8887 2.27002 38.7893C3.0873 39.6899 4.21059 40.254 5.42104 40.3717C6.63149 40.4894 7.84241 40.1523 8.8179 39.4261C9.79339 38.6998 10.4636 37.6364 10.6979 36.4431H20.9843C21.1904 39.6441 22.4531 42.6862 24.5745 45.0922L17.2956 52.3715C16.2859 51.6935 15.06 51.4157 13.8567 51.5921C12.6534 51.7685 11.5589 52.3866 10.7864 53.3259C10.0139 54.2652 9.61869 55.4584 9.67785 56.6731C9.73701 57.8878 10.2463 59.037 11.1064 59.8968C11.9665 60.7566 13.116 61.2654 14.3307 61.324C15.5455 61.3827 16.7386 60.9871 17.6776 60.2142C18.6166 59.4413 19.2342 58.3465 19.4101 57.1432C19.5861 55.9398 19.3078 54.714 18.6294 53.7047L25.9082 46.4259C28.3183 48.5409 31.3582 49.8026 34.5575 50.016V60.3023C33.3642 60.5366 32.3007 61.2068 31.5745 62.1822C30.8482 63.1577 30.5111 64.3686 30.6288 65.579C30.7465 66.7895 31.3106 67.9127 32.2112 68.73C33.1118 69.5473 34.2844 70 35.5006 70C36.7168 70 37.8894 69.5473 38.79 68.73C39.6906 67.9127 40.2547 66.7895 40.3724 65.579C40.4901 64.3686 40.153 63.1577 39.4267 62.1822C38.7005 61.2068 37.637 60.5366 36.4437 60.3023V50.016C39.643 49.8026 42.6829 48.5409 45.093 46.4259L52.3724 53.7047C51.6939 54.7141 51.4155 55.9401 51.5914 57.1436C51.7674 58.3471 52.3851 59.442 53.3242 60.2149C54.2633 60.9879 55.4565 61.3836 56.6714 61.325C57.8863 61.2663 59.0359 60.7575 59.8961 59.8976C60.7563 59.0377 61.2657 57.8884 61.3248 56.6735C61.384 55.4587 60.9887 54.2653 60.2161 53.3259C59.4435 52.3865 58.3488 51.7684 57.1454 51.5919C55.9419 51.4155 54.7159 51.6934 53.7061 52.3715L46.4267 45.0922C48.5481 42.6862 49.8108 39.6441 50.0168 36.4431H60.3033C60.4822 37.3533 60.916 38.1939 61.5543 38.867C62.1926 39.5401 63.009 40.018 63.9084 40.2449C64.8079 40.4719 65.7533 40.4385 66.6345 40.1488C67.5157 39.859 68.2964 39.3248 68.8857 38.6084C69.475 37.892 69.8485 37.0228 69.9627 36.1023C70.077 35.1817 69.9273 34.2477 69.531 33.4089C69.1348 32.5702 68.5084 31.8613 67.7247 31.365C66.9411 30.8686 66.0325 30.6051 65.1049 30.6053H65.1054ZM54.3081 12.4389C54.8004 11.9468 55.448 11.6406 56.1408 11.5725C56.8335 11.5044 57.5284 11.6786 58.1071 12.0654C58.6857 12.4522 59.1124 13.0277 59.3144 13.6938C59.5163 14.3599 59.481 15.0754 59.2146 15.7184C58.9481 16.3615 58.4669 16.8922 57.853 17.2202C57.2391 17.5483 56.5304 17.6533 55.8478 17.5174C55.1651 17.3815 54.5507 17.0132 54.1092 16.4751C53.6677 15.937 53.4264 15.2624 53.4264 14.5664C53.4271 13.7685 53.7441 13.0033 54.3081 12.4389ZM32.4919 5.89569C32.4919 5.30065 32.6684 4.71896 32.999 4.2242C33.3296 3.72944 33.7995 3.34382 34.3492 3.1161C34.899 2.88839 35.5039 2.82881 36.0876 2.9449C36.6712 3.06098 37.2073 3.34753 37.628 3.76829C38.0488 4.18905 38.3354 4.72513 38.4514 5.30874C38.5675 5.89236 38.508 6.49729 38.2802 7.04704C38.0525 7.59679 37.6669 8.06667 37.1721 8.39726C36.6773 8.72785 36.0957 8.9043 35.5006 8.9043C34.703 8.9033 33.9383 8.586 33.3743 8.022C32.8102 7.45799 32.4929 6.69332 32.4919 5.89569ZM12.4391 16.6928C11.947 16.2006 11.6408 15.5529 11.5727 14.8602C11.5046 14.1675 11.6788 13.4726 12.0656 12.8939C12.4524 12.3153 13.0279 11.8886 13.694 11.6867C14.3601 11.4847 15.0757 11.52 15.7187 11.7864C16.3617 12.0529 16.8925 12.5341 17.2205 13.148C17.5486 13.7619 17.6536 14.4705 17.5177 15.1532C17.3818 15.8358 17.0134 16.4502 16.4753 16.8917C15.9372 17.3333 15.2627 17.5745 14.5666 17.5745C13.7687 17.5738 13.0036 17.2568 12.4391 16.6928ZM5.89578 38.5086C5.30072 38.5086 4.71903 38.3322 4.22426 38.0016C3.72949 37.671 3.34386 37.2011 3.11614 36.6513C2.88842 36.1016 2.82884 35.4967 2.94493 34.913C3.06102 34.3294 3.34757 33.7934 3.76834 33.3726C4.1891 32.9518 4.7252 32.6653 5.30882 32.5492C5.89244 32.4331 6.49738 32.4927 7.04714 32.7204C7.5969 32.9481 8.06679 33.3337 8.39739 33.8285C8.72798 34.3233 8.90444 34.9049 8.90444 35.5C8.90344 36.2976 8.58614 37.0623 8.02212 37.6263C7.4581 38.1903 6.69342 38.5076 5.89578 38.5086ZM16.6931 58.5611C16.2008 59.0532 15.5531 59.3594 14.8604 59.4275C14.1677 59.4956 13.4728 59.3214 12.8941 58.9346C12.3154 58.5478 11.8888 57.9723 11.6868 57.3062C11.4849 56.6401 11.5202 55.9246 11.7866 55.2816C12.0531 54.6385 12.5343 54.1078 13.1482 53.7798C13.7621 53.4517 14.4707 53.3467 15.1534 53.4826C15.8361 53.6185 16.4505 53.9868 16.892 54.5249C17.3335 55.063 17.5748 55.7376 17.5747 56.4336C17.5741 57.2315 17.2571 57.9966 16.6931 58.5611ZM32.0517 43.149C32.2348 43.0114 32.3617 42.8121 32.4089 42.588L32.611 41.6234C32.7249 41.0755 32.7022 40.5081 32.545 39.9711C32.3878 39.4341 32.1008 38.9441 31.7095 38.5442C30.9838 37.7995 30.4939 36.8574 30.301 35.8357C30.108 34.814 30.2207 33.7582 30.6248 32.8002C31.0289 31.8422 31.7065 31.0246 32.5729 30.4498C33.4393 29.8749 34.456 29.5683 35.4958 29.5683C36.5355 29.5683 37.5522 29.8749 38.4186 30.4498C39.2849 31.0246 39.9626 31.8422 40.3667 32.8002C40.7708 33.7582 40.8834 34.814 40.6905 35.8357C40.4976 36.8574 40.0077 37.7995 39.282 38.5442C38.8909 38.9439 38.6044 39.4337 38.4476 39.9705C38.2908 40.5073 38.2687 41.0744 38.3832 41.6218L38.5852 42.5853C38.6324 42.8094 38.7594 43.0087 38.9425 43.1463L42.6609 45.9334C40.5461 47.3646 38.051 48.1295 35.4974 48.1295C32.9437 48.1295 30.4487 47.3646 28.3338 45.9334L32.0517 43.149ZM38.506 65.1043C38.506 65.6995 38.3295 66.2813 37.9987 66.7761C37.668 67.271 37.1979 67.6566 36.648 67.8842C36.098 68.1118 35.4929 68.1712 34.9092 68.0549C34.3255 67.9385 33.7894 67.6516 33.3688 67.2306C32.9481 66.8095 32.6618 66.2731 32.5461 65.6893C32.4304 65.1054 32.4904 64.5004 32.7187 63.9507C32.9469 63.401 33.333 62.9314 33.8282 62.6012C34.3234 62.271 34.9054 62.0951 35.5006 62.0957C36.2982 62.0967 37.0629 62.414 37.6269 62.978C38.191 63.542 38.5083 64.3067 38.5093 65.1043H38.506ZM58.5621 54.3072C59.0542 54.7994 59.3604 55.4471 59.4285 56.1398C59.4966 56.8325 59.3224 57.5274 58.9356 58.1061C58.5488 58.6847 57.9733 59.1114 57.3072 59.3133C56.6411 59.5153 55.9255 59.48 55.2825 59.2136C54.6395 58.9471 54.1087 58.4659 53.7807 57.852C53.4526 57.2381 53.3476 56.5295 53.4835 55.8468C53.6194 55.1642 53.9877 54.5498 54.5259 54.1082C55.064 53.6667 55.7385 53.4255 56.4346 53.4255C57.2325 53.4262 57.9976 53.7432 58.5621 54.3072ZM44.1768 44.7117L40.3614 41.8524L40.2326 41.237C40.1817 40.9925 40.1919 40.7391 40.2622 40.4995C40.3325 40.2598 40.4608 40.0411 40.6357 39.8628C41.6203 38.8529 42.2852 37.5751 42.5473 36.1893C42.8094 34.8035 42.657 33.3711 42.1092 32.0714C41.5614 30.7717 40.6426 29.6624 39.4676 28.8823C38.2926 28.1021 36.9136 27.6857 35.5032 27.6852C34.0928 27.6847 32.7135 28.1001 31.5379 28.8794C30.3624 29.6587 29.4427 30.7673 28.8939 32.0666C28.3452 33.3658 28.1918 34.7981 28.4528 36.1841C28.7139 37.5701 29.3779 38.8484 30.3617 39.8591C30.5373 40.0377 30.6662 40.2567 30.7372 40.4969C30.8082 40.7371 30.8189 40.9911 30.7685 41.2365L30.6397 41.8524L26.8244 44.7117C24.9757 42.9731 23.6921 40.7192 23.1399 38.2423C22.5878 35.7653 22.7925 33.1796 23.7276 30.8204C24.6628 28.4613 26.2851 26.4375 28.3843 25.0115C30.4836 23.5854 32.9628 22.823 35.5006 22.823C38.0384 22.823 40.5176 23.5854 42.6168 25.0115C44.7161 26.4375 46.3384 28.4613 47.2736 30.8204C48.2087 33.1796 48.4134 35.7653 47.8613 38.2423C47.3091 40.7192 46.0255 42.9731 44.1768 44.7117ZM65.1049 38.5086C64.5099 38.5084 63.9283 38.3318 63.4336 38.001C62.939 37.6703 62.5536 37.2004 62.326 36.6506C62.0984 36.1008 62.039 35.4959 62.1552 34.9124C62.2714 34.3288 62.5581 33.7929 62.9789 33.3722C63.3997 32.9516 63.9358 32.6651 64.5194 32.5491C65.103 32.4331 65.7079 32.4928 66.2576 32.7205C66.8073 32.9483 67.2771 33.3339 67.6076 33.8286C67.9382 34.3234 68.1146 34.905 68.1146 35.5C68.1136 36.2977 67.7962 37.0625 67.2321 37.6265C66.668 38.1905 65.9031 38.5077 65.1054 38.5086H65.1049Z" fill="#006298"/>
<path d="M65.1054 30.6053C63.9716 30.6074 62.8736 31.0023 61.9982 31.7227C61.1227 32.4432 60.524 33.4448 60.3038 34.5569H50.0168C49.8108 31.3559 48.5481 28.3138 46.4267 25.9078L53.7056 18.6285C54.7153 19.3065 55.9412 19.5843 57.1445 19.4079C58.3478 19.2315 59.4423 18.6134 60.2148 17.6741C60.9873 16.7348 61.3825 15.5416 61.3233 14.3269C61.2642 13.1122 60.7549 11.963 59.8948 11.1032C59.0346 10.2434 57.8852 9.73463 56.6705 9.67596C55.4557 9.61729 54.2626 10.0129 53.3236 10.7858C52.3846 11.5587 51.767 12.6535 51.591 13.8568C51.4151 15.0602 51.6934 16.2859 52.3718 17.2953L45.093 24.5741C42.6869 22.4527 39.6447 21.19 36.4437 20.984V10.6977C37.637 10.4634 38.7005 9.79323 39.4267 8.81777C40.153 7.8423 40.4901 6.63139 40.3724 5.42096C40.2547 4.21053 39.6906 3.08727 38.79 2.27C37.8894 1.45273 36.7168 1 35.5006 1C34.2844 1 33.1118 1.45273 32.2112 2.27C31.3106 3.08727 30.7465 4.21053 30.6288 5.42096C30.5111 6.63139 30.8482 7.8423 31.5745 8.81777C32.3007 9.79323 33.3642 10.4634 34.5575 10.6977V20.984C31.3565 21.19 28.3143 22.4527 25.9082 24.5741L18.6288 17.2953C19.3065 16.2867 19.5845 15.0619 19.4085 13.8595C19.2326 12.6572 18.6153 11.5634 17.6771 10.7912C16.7388 10.019 15.5466 9.62379 14.3329 9.68246C13.1191 9.74112 11.9707 10.2495 11.1113 11.1086C10.2518 11.9676 9.74296 13.1159 9.6838 14.3296C9.62465 15.5433 10.0194 16.7356 10.7912 17.6741C11.563 18.6127 12.6566 19.2304 13.8589 19.4068C15.0612 19.5832 16.2861 19.3058 17.2951 18.6285L24.5745 25.9078C22.4531 28.3138 21.1904 31.3559 20.9843 34.5569H10.6979C10.4636 33.3636 9.79339 32.3002 8.8179 31.5739C7.84241 30.8477 6.63149 30.5106 5.42104 30.6283C4.21059 30.746 3.0873 31.3101 2.27002 32.2107C1.45274 33.1113 1 34.2839 1 35.5C1 36.7161 1.45274 37.8887 2.27002 38.7893C3.0873 39.6899 4.21059 40.254 5.42104 40.3717C6.63149 40.4894 7.84241 40.1523 8.8179 39.4261C9.79339 38.6998 10.4636 37.6364 10.6979 36.4431H20.9843C21.1904 39.6441 22.4531 42.6862 24.5745 45.0922L17.2956 52.3715C16.2859 51.6935 15.06 51.4157 13.8567 51.5921C12.6534 51.7685 11.5589 52.3866 10.7864 53.3259C10.0139 54.2652 9.61869 55.4584 9.67785 56.6731C9.73701 57.8878 10.2463 59.037 11.1064 59.8968C11.9665 60.7566 13.116 61.2654 14.3307 61.324C15.5455 61.3827 16.7386 60.9871 17.6776 60.2142C18.6166 59.4413 19.2342 58.3465 19.4101 57.1432C19.5861 55.9398 19.3078 54.714 18.6294 53.7047L25.9082 46.4259C28.3183 48.5409 31.3582 49.8026 34.5575 50.016V60.3023C33.3642 60.5366 32.3007 61.2068 31.5745 62.1822C30.8482 63.1577 30.5111 64.3686 30.6288 65.579C30.7465 66.7895 31.3106 67.9127 32.2112 68.73C33.1118 69.5473 34.2844 70 35.5006 70C36.7168 70 37.8894 69.5473 38.79 68.73C39.6906 67.9127 40.2547 66.7895 40.3724 65.579C40.4901 64.3686 40.153 63.1577 39.4267 62.1822C38.7005 61.2068 37.637 60.5366 36.4437 60.3023V50.016C39.643 49.8026 42.6829 48.5409 45.093 46.4259L52.3724 53.7047C51.6939 54.7141 51.4155 55.9401 51.5914 57.1436C51.7674 58.3471 52.3851 59.442 53.3242 60.2149C54.2633 60.9879 55.4565 61.3836 56.6714 61.325C57.8863 61.2663 59.0359 60.7575 59.8961 59.8976C60.7563 59.0377 61.2657 57.8884 61.3248 56.6735C61.384 55.4587 60.9887 54.2653 60.2161 53.3259C59.4435 52.3865 58.3488 51.7684 57.1454 51.5919C55.9419 51.4155 54.7159 51.6934 53.7061 52.3715L46.4267 45.0922C48.5481 42.6862 49.8108 39.6441 50.0168 36.4431H60.3033C60.4822 37.3533 60.916 38.1939 61.5543 38.867C62.1926 39.5401 63.009 40.018 63.9084 40.2449C64.8079 40.4719 65.7533 40.4385 66.6345 40.1488C67.5157 39.859 68.2964 39.3248 68.8857 38.6084C69.475 37.892 69.8485 37.0228 69.9627 36.1023C70.077 35.1817 69.9273 34.2477 69.531 33.4089C69.1348 32.5702 68.5084 31.8613 67.7247 31.365C66.9411 30.8686 66.0325 30.6051 65.1049 30.6053H65.1054ZM54.3081 12.4389C54.8004 11.9468 55.448 11.6406 56.1408 11.5725C56.8335 11.5044 57.5284 11.6786 58.1071 12.0654C58.6857 12.4522 59.1124 13.0277 59.3144 13.6938C59.5163 14.3599 59.481 15.0754 59.2146 15.7184C58.9481 16.3615 58.4669 16.8922 57.853 17.2202C57.2391 17.5483 56.5304 17.6533 55.8478 17.5174C55.1651 17.3815 54.5507 17.0132 54.1092 16.4751C53.6677 15.937 53.4264 15.2624 53.4264 14.5664C53.4271 13.7685 53.7441 13.0033 54.3081 12.4389ZM32.4919 5.89569C32.4919 5.30065 32.6684 4.71896 32.999 4.2242C33.3296 3.72944 33.7995 3.34382 34.3492 3.1161C34.899 2.88839 35.5039 2.82881 36.0876 2.9449C36.6712 3.06098 37.2073 3.34753 37.628 3.76829C38.0488 4.18905 38.3354 4.72513 38.4514 5.30874C38.5675 5.89236 38.508 6.49729 38.2802 7.04704C38.0525 7.59679 37.6669 8.06667 37.1721 8.39726C36.6773 8.72785 36.0957 8.9043 35.5006 8.9043C34.703 8.9033 33.9383 8.586 33.3743 8.022C32.8102 7.45799 32.4929 6.69332 32.4919 5.89569ZM12.4391 16.6928C11.947 16.2006 11.6408 15.5529 11.5727 14.8602C11.5046 14.1675 11.6788 13.4726 12.0656 12.8939C12.4524 12.3153 13.0279 11.8886 13.694 11.6867C14.3601 11.4847 15.0757 11.52 15.7187 11.7864C16.3617 12.0529 16.8925 12.5341 17.2205 13.148C17.5486 13.7619 17.6536 14.4705 17.5177 15.1532C17.3818 15.8358 17.0134 16.4502 16.4753 16.8917C15.9372 17.3333 15.2627 17.5745 14.5666 17.5745C13.7687 17.5738 13.0036 17.2568 12.4391 16.6928ZM5.89578 38.5086C5.30072 38.5086 4.71903 38.3322 4.22426 38.0016C3.72949 37.671 3.34386 37.2011 3.11614 36.6513C2.88842 36.1016 2.82884 35.4967 2.94493 34.913C3.06102 34.3294 3.34757 33.7934 3.76834 33.3726C4.1891 32.9518 4.7252 32.6653 5.30882 32.5492C5.89244 32.4331 6.49738 32.4927 7.04714 32.7204C7.5969 32.9481 8.06679 33.3337 8.39739 33.8285C8.72798 34.3233 8.90444 34.9049 8.90444 35.5C8.90344 36.2976 8.58614 37.0623 8.02212 37.6263C7.4581 38.1903 6.69342 38.5076 5.89578 38.5086ZM16.6931 58.5611C16.2008 59.0532 15.5531 59.3594 14.8604 59.4275C14.1677 59.4956 13.4728 59.3214 12.8941 58.9346C12.3154 58.5478 11.8888 57.9723 11.6868 57.3062C11.4849 56.6401 11.5202 55.9246 11.7866 55.2816C12.0531 54.6385 12.5343 54.1078 13.1482 53.7798C13.7621 53.4517 14.4707 53.3467 15.1534 53.4826C15.8361 53.6185 16.4505 53.9868 16.892 54.5249C17.3335 55.063 17.5748 55.7376 17.5747 56.4336C17.5741 57.2315 17.2571 57.9966 16.6931 58.5611ZM32.0517 43.149C32.2348 43.0114 32.3617 42.8121 32.4089 42.588L32.611 41.6234C32.7249 41.0755 32.7022 40.5081 32.545 39.9711C32.3878 39.4341 32.1008 38.9441 31.7095 38.5442C30.9838 37.7995 30.4939 36.8574 30.301 35.8357C30.108 34.814 30.2207 33.7582 30.6248 32.8002C31.0289 31.8422 31.7065 31.0246 32.5729 30.4498C33.4393 29.8749 34.456 29.5683 35.4958 29.5683C36.5355 29.5683 37.5522 29.8749 38.4186 30.4498C39.2849 31.0246 39.9626 31.8422 40.3667 32.8002C40.7708 33.7582 40.8834 34.814 40.6905 35.8357C40.4976 36.8574 40.0077 37.7995 39.282 38.5442C38.8909 38.9439 38.6044 39.4337 38.4476 39.9705C38.2908 40.5073 38.2687 41.0744 38.3832 41.6218L38.5852 42.5853C38.6324 42.8094 38.7594 43.0087 38.9425 43.1463L42.6609 45.9334C40.5461 47.3646 38.051 48.1295 35.4974 48.1295C32.9437 48.1295 30.4487 47.3646 28.3338 45.9334L32.0517 43.149ZM38.506 65.1043C38.506 65.6995 38.3295 66.2813 37.9987 66.7761C37.668 67.271 37.1979 67.6566 36.648 67.8842C36.098 68.1118 35.4929 68.1712 34.9092 68.0549C34.3255 67.9385 33.7894 67.6516 33.3688 67.2306C32.9481 66.8095 32.6618 66.2731 32.5461 65.6893C32.4304 65.1054 32.4904 64.5004 32.7187 63.9507C32.9469 63.401 33.333 62.9314 33.8282 62.6012C34.3234 62.271 34.9054 62.0951 35.5006 62.0957C36.2982 62.0967 37.0629 62.414 37.6269 62.978C38.191 63.542 38.5083 64.3067 38.5093 65.1043H38.506ZM58.5621 54.3072C59.0542 54.7994 59.3604 55.4471 59.4285 56.1398C59.4966 56.8325 59.3224 57.5274 58.9356 58.1061C58.5488 58.6847 57.9733 59.1114 57.3072 59.3133C56.6411 59.5153 55.9255 59.48 55.2825 59.2136C54.6395 58.9471 54.1087 58.4659 53.7807 57.852C53.4526 57.2381 53.3476 56.5295 53.4835 55.8468C53.6194 55.1642 53.9877 54.5498 54.5259 54.1082C55.064 53.6667 55.7385 53.4255 56.4346 53.4255C57.2325 53.4262 57.9976 53.7432 58.5621 54.3072ZM44.1768 44.7117L40.3614 41.8524L40.2326 41.237C40.1817 40.9925 40.1919 40.7391 40.2622 40.4995C40.3325 40.2598 40.4608 40.0411 40.6357 39.8628C41.6203 38.8529 42.2852 37.5751 42.5473 36.1893C42.8094 34.8035 42.657 33.3711 42.1092 32.0714C41.5614 30.7717 40.6426 29.6624 39.4676 28.8823C38.2926 28.1021 36.9136 27.6857 35.5032 27.6852C34.0928 27.6847 32.7135 28.1001 31.5379 28.8794C30.3624 29.6587 29.4427 30.7673 28.8939 32.0666C28.3452 33.3658 28.1918 34.7981 28.4528 36.1841C28.7139 37.5701 29.3779 38.8484 30.3617 39.8591C30.5373 40.0377 30.6662 40.2567 30.7372 40.4969C30.8082 40.7371 30.8189 40.9911 30.7685 41.2365L30.6397 41.8524L26.8244 44.7117C24.9757 42.9731 23.6921 40.7192 23.1399 38.2423C22.5878 35.7653 22.7925 33.1796 23.7276 30.8204C24.6628 28.4613 26.2851 26.4375 28.3843 25.0115C30.4836 23.5854 32.9628 22.823 35.5006 22.823C38.0384 22.823 40.5176 23.5854 42.6168 25.0115C44.7161 26.4375 46.3384 28.4613 47.2736 30.8204C48.2087 33.1796 48.4134 35.7653 47.8613 38.2423C47.3091 40.7192 46.0255 42.9731 44.1768 44.7117ZM65.1049 38.5086C64.5099 38.5084 63.9283 38.3318 63.4336 38.001C62.939 37.6703 62.5536 37.2004 62.326 36.6506C62.0984 36.1008 62.039 35.4959 62.1552 34.9124C62.2714 34.3288 62.5581 33.7929 62.9789 33.3722C63.3997 32.9516 63.9358 32.6651 64.5194 32.5491C65.103 32.4331 65.7079 32.4928 66.2576 32.7205C66.8073 32.9483 67.2771 33.3339 67.6076 33.8286C67.9382 34.3234 68.1146 34.905 68.1146 35.5C68.1136 36.2977 67.7962 37.0625 67.2321 37.6265C66.668 38.1905 65.9031 38.5077 65.1054 38.5086H65.1049Z" stroke="#006298" stroke-width="0.6" mask="url(#path-1-outside-1)"/>
</svg>
