<svg width="70" height="70" viewBox="0 0 70 70" fill="none" xmlns="http://www.w3.org/2000/svg">
<path d="M11.2903 45.1613H22.5806C24.4481 45.1613 25.9677 43.6416 25.9677 41.7742C25.9677 39.9068 24.4481 38.3871 22.5806 38.3871H11.2903C9.4229 38.3871 7.90323 39.9068 7.90323 41.7742C7.90323 43.6416 9.4229 45.1613 11.2903 45.1613ZM11.2903 40.6452H22.5806C23.2039 40.6452 23.7097 41.151 23.7097 41.7742C23.7097 42.3974 23.2039 42.9032 22.5806 42.9032H11.2903C10.6671 42.9032 10.1613 42.3974 10.1613 41.7742C10.1613 41.151 10.6671 40.6452 11.2903 40.6452Z" fill="#006298"/>
<path d="M66.6129 24.8387C68.4803 24.8387 70 23.319 70 21.4516V3.3871C70 1.51968 68.4803 0 66.6129 0H58.7097C57.6484 0 56.6356 0.506936 56.0011 1.35484L53.629 4.51613H44.0323C42.1648 4.51613 40.6452 6.03581 40.6452 7.90323V12.4194H30.4263C29.8494 5.47694 24.0258 0 16.9355 0C9.46468 0 3.3871 6.07758 3.3871 13.5484C3.3871 20.6376 8.8629 26.4623 15.8065 27.0392V33.8958C6.72226 34.151 0 37.4477 0 41.7742V63.2258C0 67.6256 8.72629 70 16.9355 70C25.1447 70 33.871 67.6256 33.871 63.2258V56.4516H40.7027C41.2831 64.0173 47.6113 70 55.3226 70C63.4155 70 70 63.4155 70 55.3226C70 47.6113 64.0173 41.2831 56.4516 40.7027V24.8387H66.6129ZM66.6129 22.5806H44.0323C43.409 22.5806 42.9032 22.0737 42.9032 21.4516V11.2903H67.7419V21.4516C67.7419 22.0737 67.2361 22.5806 66.6129 22.5806ZM44.0323 6.77419H54.7581L57.8076 2.70855C58.0187 2.42629 58.3563 2.25806 58.7097 2.25806H66.6129C67.2361 2.25806 67.7419 2.765 67.7419 3.3871V9.03226H42.9032V7.90323C42.9032 7.28113 43.409 6.77419 44.0323 6.77419ZM5.64516 13.5484C5.64516 12.3685 5.82919 11.2316 6.16565 10.1613H10.5023C10.2934 11.2158 10.1613 12.3403 10.1613 13.5484C10.1613 14.7565 10.2934 15.881 10.5034 16.9355H6.16565C5.82919 15.8652 5.64516 14.7282 5.64516 13.5484ZM12.4194 13.5484C12.4194 12.3302 12.5752 11.2045 12.819 10.1613H21.0565C21.2981 11.2034 21.4516 12.329 21.4516 13.5484C21.4516 14.7666 21.2958 15.8923 21.0519 16.9355H12.8145C12.5729 15.8934 12.4194 14.7677 12.4194 13.5484ZM16.9377 2.67694C17.815 3.56887 19.3132 5.34935 20.3452 7.90323H13.5326C14.5668 5.35613 16.0639 3.57226 16.9377 2.67694ZM20.3384 19.1935C19.3042 21.7418 17.8071 23.5256 16.9332 24.4198C16.056 23.5279 14.5577 21.7474 13.5258 19.1935H20.3384ZM22.7692 19.1935H26.6982C25.2282 21.7248 22.8087 23.6295 19.9263 24.4244C20.9142 23.1508 22.0105 21.4008 22.7692 19.1935ZM28.2258 13.5484C28.2258 14.7282 28.0429 15.8652 27.7053 16.9355H23.3687C23.5776 15.881 23.7097 14.7565 23.7097 13.5484C23.7097 12.3403 23.5776 11.2158 23.3676 10.1613H27.7042C28.0429 11.2316 28.2258 12.3685 28.2258 13.5484ZM26.6982 7.90323H22.7692C22.0105 5.69597 20.9142 3.94597 19.9263 2.67242C22.8087 3.46726 25.2282 5.37194 26.6982 7.90323ZM13.9447 2.67242C12.9568 3.94597 11.8605 5.69597 11.1018 7.90323H7.17274C8.64274 5.37194 11.0623 3.46726 13.9447 2.67242ZM7.17274 19.1935H11.1018C11.8605 21.4008 12.9568 23.1508 13.9447 24.4244C11.0623 23.6295 8.64274 21.7248 7.17274 19.1935ZM16.9355 36.129C25.585 36.129 31.6129 39.104 31.6129 41.7742C31.6129 44.4444 25.585 47.4194 16.9355 47.4194C8.28597 47.4194 2.25806 44.4444 2.25806 41.7742C2.25806 39.104 8.28597 36.129 16.9355 36.129ZM2.25806 45.8195C5.13032 48.1611 10.4977 49.6774 16.9355 49.6774C23.3732 49.6774 28.7406 48.1611 31.6129 45.8195V49.6774C31.6129 51.5189 25.8955 54.1936 16.9355 54.1936C7.97548 54.1936 2.25806 51.5189 2.25806 49.6774V45.8195ZM2.25806 53.1853C5.3821 55.3248 11.2802 56.4516 16.9355 56.4516C22.5908 56.4516 28.4889 55.3248 31.6129 53.1853V56.4516C31.6129 58.2931 25.8955 60.9677 16.9355 60.9677C7.97548 60.9677 2.25806 58.2931 2.25806 56.4516V53.1853ZM16.9355 67.7419C7.97548 67.7419 2.25806 65.0673 2.25806 63.2258V59.9595C5.3821 62.099 11.2802 63.2258 16.9355 63.2258C22.5908 63.2258 28.4889 62.099 31.6129 59.9595V63.2258C31.6129 65.0673 25.8955 67.7419 16.9355 67.7419ZM46.6855 64.2284C47.7185 60.9576 50.7094 58.7097 54.1936 58.7097H56.4516C59.9381 58.7097 62.9289 60.9576 63.9597 64.2284C61.7219 66.3984 58.6781 67.7419 55.3226 67.7419C51.9671 67.7419 48.9232 66.3984 46.6855 64.2284ZM55.3226 56.4516C52.8319 56.4516 50.8064 54.4261 50.8064 51.9355C50.8064 49.4448 52.8319 47.4194 55.3226 47.4194C57.8132 47.4194 59.8387 49.4448 59.8387 51.9355C59.8387 54.4261 57.8132 56.4516 55.3226 56.4516ZM67.7419 55.3226C67.7419 57.8855 66.9606 60.2689 65.6261 62.2492C64.4576 59.7721 62.3519 57.8934 59.7947 57.0116C61.2026 55.7685 62.0968 53.9565 62.0968 51.9355C62.0968 48.1995 59.0585 45.1613 55.3226 45.1613C51.5866 45.1613 48.5484 48.1995 48.5484 51.9355C48.5484 53.9565 49.4426 55.7685 50.8516 57.0116C48.2944 57.8945 46.1898 59.7732 45.0202 62.2492C43.6845 60.2689 42.9032 57.8855 42.9032 55.3226C42.9032 48.475 48.475 42.9032 55.3226 42.9032C62.1702 42.9032 67.7419 48.475 67.7419 55.3226ZM54.1936 40.7027C47.0016 41.2537 41.2537 47.0016 40.7027 54.1936H33.871V41.7742C33.871 37.4477 27.1487 34.151 18.0645 33.8958V27.0392C24.6344 26.4927 29.881 21.2473 30.4263 14.6774H40.6452V21.4516C40.6452 23.319 42.1648 24.8387 44.0323 24.8387H54.1936V40.7027Z" fill="#006298"/>
<path d="M63.2258 4.51613H65.4839V6.77419H63.2258V4.51613Z" fill="#006298"/>
<path d="M58.7097 4.51613H60.9677V6.77419H58.7097V4.51613Z" fill="#006298"/>
<path d="M45.1613 18.0645H47.4194V20.3226H45.1613V18.0645Z" fill="#006298"/>
<path d="M49.6774 18.0645H51.9355V20.3226H49.6774V18.0645Z" fill="#006298"/>
<path d="M54.1936 18.0645H56.4516V20.3226H54.1936V18.0645Z" fill="#006298"/>
<path d="M18.0645 12.4194H20.3226V14.6774H18.0645V12.4194Z" fill="#006298"/>
<path d="M13.5484 12.4194H15.8065V14.6774H13.5484V12.4194Z" fill="#006298"/>
</svg>
