<svg width="70" height="70" viewBox="0 0 70 70" fill="none" xmlns="http://www.w3.org/2000/svg">
<path d="M64.2555 0C64.0059 0 63.2857 0 63.1618 0H21.8724C21.1173 0 20.5052 0.612241 20.5052 1.36722C20.5052 2.1222 21.1173 2.73444 21.8724 2.73444H59.367C58.8265 3.60987 58.5136 4.63993 58.5136 5.74219V23.6503C58.5136 24.4053 59.1257 25.0175 59.8808 25.0175C60.6359 25.0175 61.248 24.4053 61.248 23.6503V19.414H68.6305C69.3856 19.414 69.9977 18.8017 69.9977 18.0468V5.74219C69.9976 2.57598 67.4218 0 64.2555 0ZM67.2634 16.6795H61.2479V5.74219C61.2479 4.08361 62.5972 2.73444 64.2555 2.73444C65.9139 2.73444 67.2632 4.08375 67.2632 5.74219L67.2634 16.6795Z" fill="#006298"/>
<path d="M68.5059 55.7164L59.5754 46.7857C60.606 44.6837 61.1857 42.3224 61.1857 39.8279C61.1857 31.0831 54.0714 23.9687 45.3269 23.9687C36.5823 23.9687 29.4681 31.0831 29.4681 39.8279C29.4681 41.8272 29.8409 43.7409 30.5191 45.5043L28.9189 47.1047L22.3368 40.5223C22.0805 40.266 21.7327 40.1219 21.3701 40.1219C21.0075 40.1219 20.6597 40.266 20.4033 40.5223L18.8646 42.0611V29.5768C18.8646 28.8218 18.2525 28.2096 17.4974 28.2096C16.7423 28.2096 16.1302 28.8218 16.1302 29.5768V44.7956L3.76878 57.1574C3.2349 57.6913 3.2349 58.5571 3.76878 59.0911C4.0358 59.358 4.38566 59.4915 4.73552 59.4915C5.08538 59.4915 5.43538 59.358 5.70226 59.0911L16.1302 48.6629V58.5156H10.1157C9.36057 58.5156 8.74849 59.1279 8.74849 59.8828V64.2578C8.74849 67.424 11.3243 70 14.4905 70H55.5058C58.6721 70 61.248 67.424 61.248 64.2575V63.0838C62.2045 64.0123 63.4653 64.5228 64.8119 64.5228C64.8203 64.5228 64.8289 64.5226 64.8376 64.5226C66.2146 64.5159 67.5081 63.977 68.4801 63.0049C70.4965 60.9881 70.5081 57.7187 68.5059 55.7164ZM45.3267 26.703C52.5636 26.703 58.4513 32.5908 58.4513 39.8279C58.4513 47.065 52.5636 52.9528 45.3267 52.9528C40.3573 52.9528 36.0243 50.1765 33.7968 46.0936L41.6978 38.1925V41.2943C41.6978 42.0492 42.3099 42.6615 43.065 42.6615C43.8201 42.6615 44.4322 42.0492 44.4322 41.2943V34.7327C44.4322 33.9777 43.8201 33.3655 43.065 33.3655H36.5035C35.7484 33.3655 35.1363 33.9777 35.1363 34.7327C35.1363 35.4877 35.7484 36.0999 36.5035 36.0999H39.9235L32.6809 43.3426C32.3695 42.2236 32.2023 41.045 32.2023 39.8281C32.2021 32.5907 38.0898 26.703 45.3267 26.703ZM14.4904 67.2651C12.8319 67.265 11.4827 65.9157 11.4827 64.2573V61.2495H49.7635V62.8902C49.7635 62.9349 49.766 62.9791 49.7702 63.0227C49.766 63.0663 49.7635 63.1104 49.7635 63.1552V64.2573C49.7635 65.3597 50.0763 66.3898 50.617 67.2653L14.4904 67.2651ZM58.5136 64.2569C58.5136 65.9157 57.1642 67.265 55.5058 67.265C53.8472 67.265 52.4979 65.9156 52.4979 64.257V63.1549C52.4979 63.1102 52.4954 63.066 52.4912 63.0224C52.4954 62.9788 52.4979 62.9346 52.4979 62.8899V59.8822C52.4979 59.1272 51.8858 58.5149 51.1307 58.5149H18.8646V45.9279L21.3699 43.4225L27.952 50.0048C28.2083 50.2612 28.5561 50.4053 28.9187 50.4053C29.2813 50.4053 29.6291 50.2612 29.8855 50.0048L31.7971 48.0932C34.5875 52.6444 39.6083 55.687 45.3267 55.687C47.8091 55.687 50.16 55.113 52.2541 54.0917L58.5136 60.3514V64.2569ZM66.5467 61.0708C66.0876 61.5299 65.4758 61.7846 64.8242 61.7877C64.8202 61.7878 64.8161 61.7878 64.812 61.7878C64.17 61.7878 63.5714 61.5425 63.1256 61.0965L54.666 52.6367C55.9848 51.6726 57.1495 50.51 58.1163 49.1934L66.5724 57.6496C67.5085 58.5859 67.497 60.1207 66.5467 61.0708Z" fill="#006298"/>
<path d="M53.9828 38.4608C53.2277 38.4608 52.6156 39.0731 52.6156 39.8281C52.6156 43.8471 49.3458 47.117 45.3267 47.117C44.5716 47.117 43.9595 47.7291 43.9595 48.4842C43.9595 49.2392 44.5716 49.8514 45.3267 49.8514C50.8536 49.8514 55.35 45.3549 55.35 39.8281C55.35 39.0731 54.7379 38.4608 53.9828 38.4608Z" fill="#006298"/>
<path d="M35.0161 23.5155H33.7683V14.3554C33.7683 13.6004 33.1562 12.9882 32.4011 12.9882H26.1227C25.3676 12.9882 24.7555 13.6004 24.7555 14.3554V23.5155H22.5576V8.74993C22.5576 7.99495 21.9455 7.38271 21.1904 7.38271H15.1749C14.4198 7.38271 13.8078 7.99495 13.8078 8.74993V23.5154H11.6207V17.4997C11.6207 16.7447 11.0086 16.1325 10.2535 16.1325H4.23814C3.48304 16.1325 2.87095 16.7447 2.87095 17.4997V23.5154H1.36719C0.612089 23.5154 0 24.1276 0 24.8826C0 25.6376 0.612089 26.2498 1.36719 26.2498H35.0162C35.7713 26.2498 36.3834 25.6376 36.3834 24.8826C36.3833 24.1276 35.7712 23.5155 35.0161 23.5155ZM8.88644 23.5155H5.60533V18.8671H8.88644V23.5155ZM19.8235 23.5155H16.5424V10.1171H19.8235V23.5155ZM31.034 23.5155H27.49V15.7226H31.034V23.5155Z" fill="#006298"/>
<path d="M46.1358 7.38271H35.5457C34.7906 7.38271 34.1786 7.99495 34.1786 8.74993C34.1786 9.50491 34.7906 10.1171 35.5457 10.1171H46.1358C46.8909 10.1171 47.503 9.50491 47.503 8.74993C47.5029 7.99495 46.8909 7.38271 46.1358 7.38271Z" fill="#006298"/>
<path d="M53.8653 7.78317C53.611 7.52887 53.2583 7.38258 52.8987 7.38258C52.5392 7.38258 52.1864 7.52873 51.9321 7.78317C51.6778 8.03761 51.5316 8.39022 51.5316 8.74979C51.5316 9.10937 51.6778 9.46212 51.9321 9.71628C52.1864 9.97058 52.5392 10.117 52.8987 10.117C53.2583 10.117 53.611 9.97072 53.8653 9.71628C54.1196 9.46212 54.2659 9.10937 54.2659 8.74979C54.2659 8.39035 54.1196 8.03761 53.8653 7.78317Z" fill="#006298"/>
<path d="M40.8407 13.3983H38.5989C37.8438 13.3983 37.2318 14.0106 37.2318 14.7656C37.2318 15.5205 37.8438 16.1328 38.5989 16.1328H40.8407C41.5958 16.1328 42.2079 15.5205 42.2079 14.7656C42.2079 14.0106 41.5958 13.3983 40.8407 13.3983Z" fill="#006298"/>
<path d="M52.8985 13.3983H46.1358C45.3807 13.3983 44.7686 14.0106 44.7686 14.7656C44.7686 15.5205 45.3807 16.1328 46.1358 16.1328H52.8985C53.6536 16.1328 54.2657 15.5205 54.2657 14.7656C54.2657 14.0106 53.6536 13.3983 52.8985 13.3983Z" fill="#006298"/>
<path d="M2.33502 60.5249C2.08072 60.2706 1.72799 60.1242 1.36842 60.1242C1.00748 60.1242 0.656112 60.2705 0.401816 60.5249C0.146152 60.7791 0.00123047 61.1318 0.00123047 61.4914C0.00123047 61.851 0.146152 62.2037 0.401816 62.458C0.656112 62.7123 1.00748 62.8586 1.36842 62.8586C1.72799 62.8586 2.07935 62.7124 2.33502 62.458C2.58931 62.2037 2.7356 61.851 2.7356 61.4914C2.7356 61.1317 2.58931 60.7789 2.33502 60.5249Z" fill="#006298"/>
</svg>
