<svg  xmlns="http://www.w3.org/2000/svg">
    <symbol id="footer-logo" width="95" height="28" viewBox="0 0 95 28" fill="none">
<path d="M8.11388 9.48928L6.22064 11.3604L14.1317 19.179L22.1103 11.3604L20.2171 9.48928H8.11388Z" fill="white"/>
<path d="M14.1317 22.5203L2.90747 11.3604L7.16725 7.15037H21.1637L25.4235 11.3604L14.1317 22.5203ZM0 28H28.3309V0H0V28Z" fill="white"/>
<path d="M43.4093 8.5537C43.3417 8.75418 43.2064 8.88784 43.0036 9.02149C42.8684 9.15514 42.5979 9.22194 42.3951 9.28877C42.1246 9.35559 41.8541 9.35562 41.5161 9.35562H38.7438V6.2816H41.5837C42.2598 6.2816 42.7331 6.41526 43.0712 6.61573C43.4093 6.81621 43.5445 7.21717 43.5445 7.75178C43.5445 8.08591 43.4769 8.35322 43.4093 8.5537ZM41.9218 4.47734H38.7438V2.07158H44.2883V0.200469H36.7154V11.1599H41.8541C42.936 11.1599 43.8826 10.8926 44.4911 10.2912C45.1673 9.75655 45.4378 8.82101 45.4378 7.68497C45.4378 6.61576 45.0997 5.81384 44.4911 5.21241C43.9502 4.74463 43.0712 4.47734 41.9218 4.47734Z" fill="white"/>
<path d="M63.2883 5.41288C63.4235 5.34605 63.4911 5.2124 63.6264 5.07875C63.7616 4.87827 63.8968 4.67782 64.0321 4.47734C64.1673 4.27686 64.2349 4.00953 64.3025 3.74223C64.3701 3.47493 64.3701 3.27445 64.3701 3.07397C64.3701 2.13841 64.0997 1.40333 63.4911 0.868728C62.8826 0.334121 62.0712 0.0668095 60.9894 0.0668095C60.2456 0.0668095 59.6371 0.200461 59.0285 0.400939C58.4876 0.668242 57.9467 1.06921 57.541 1.67065L57.4734 1.73746L59.0285 2.73984L59.0961 2.67303C59.2314 2.53938 59.3666 2.40571 59.5018 2.27205C59.6371 2.1384 59.7723 2.0716 59.9075 2.00478C60.0427 1.93795 60.178 1.93794 60.3132 1.87112C60.4484 1.87112 60.6513 1.80431 60.9217 1.80431C61.3951 1.80431 61.7331 1.87111 62.0036 2.07158C62.2741 2.27206 62.4093 2.53936 62.4093 2.94031C62.4093 3.47492 62.274 3.80906 61.936 4.07636C61.5979 4.27684 61.1922 4.41049 60.6513 4.41049H59.7047V6.21479H60.6513C60.9894 6.21479 61.2598 6.21478 61.5303 6.2816C61.8008 6.34843 62.0036 6.41529 62.2065 6.48211C62.4093 6.61577 62.5445 6.74939 62.6797 6.94986C62.815 7.15034 62.8826 7.41765 62.8826 7.75178C62.8826 8.28639 62.6798 8.68733 62.3417 8.95464C62.0036 9.22194 61.4627 9.35562 60.8541 9.35562C60.3808 9.35562 59.9751 9.2888 59.637 9.15515C59.299 9.0215 59.0285 8.75418 58.7581 8.35323L58.6904 8.21957L57.4057 9.48928L57.4734 9.55609C57.6762 9.89022 57.8791 10.0907 58.1495 10.358C58.3524 10.5585 58.6228 10.759 58.9609 10.8926C59.2314 11.0263 59.5694 11.0931 59.9075 11.1599C60.2456 11.2267 60.6513 11.2267 61.1246 11.2267C61.5979 11.2267 62.0036 11.1599 62.4769 11.0263C62.9502 10.8926 63.2883 10.6921 63.694 10.4248C64.0321 10.1575 64.3025 9.8234 64.573 9.35562C64.7758 8.88784 64.9111 8.35321 64.9111 7.75178C64.9111 7.08352 64.7758 6.54892 64.5054 6.08114C64.0321 5.88066 63.694 5.61335 63.2883 5.41288Z" fill="white"/>
<path d="M93.4448 8.62051L93.3772 8.68736C93.0391 9.02149 92.701 9.22197 92.363 9.35562C92.0249 9.48927 91.6192 9.48928 91.1459 9.48928C90.4697 9.48928 89.9288 9.42243 89.5231 9.22196C89.1174 9.02148 88.7793 8.82102 88.5765 8.48689C88.3736 8.15276 88.1708 7.75177 88.1032 7.28399C88.0356 6.81621 87.9679 6.28163 87.9679 5.6802V5.1456C87.9679 4.07638 88.2384 3.20764 88.7117 2.67303C89.185 2.13843 89.9964 1.80431 91.0783 1.80431C91.5516 1.80431 91.9573 1.87112 92.2953 2.00478C92.6334 2.13843 92.9715 2.3389 93.3096 2.67303L93.3772 2.73984L94.7295 1.40333L94.6619 1.33652C94.1886 0.868736 93.6476 0.534607 93.0391 0.334129C92.4306 0.133652 91.7544 0 91.1459 0C90.3345 0 89.5907 0.133652 88.9146 0.334129C88.2384 0.534607 87.6975 0.935562 87.2918 1.33652C86.8185 1.8043 86.4804 2.33888 86.2775 2.94031C86.0747 3.54174 85.9395 4.27684 85.9395 5.07875V5.6802C85.9395 6.48211 86.0071 7.28399 86.21 7.95225C86.4128 8.62051 86.6833 9.22195 87.1566 9.75656C87.5623 10.2243 88.1032 10.6253 88.7793 10.8926C89.4555 11.1599 90.1993 11.2935 91.1459 11.2935C91.822 11.2935 92.4982 11.1599 93.1067 10.9594C93.7153 10.7589 94.2562 10.358 94.7295 9.89022L94.7971 9.82341L93.4448 8.62051Z" fill="white"/>
<path d="M62.0712 20.1814C62.0712 20.7828 61.936 21.2506 61.5979 21.5179C61.3275 21.7852 60.7865 21.9189 60.178 21.9189H57.2705V18.5108H60.178C60.7865 18.5108 61.2598 18.6444 61.5979 18.9117C61.936 19.179 62.0712 19.58 62.0712 20.1814ZM64.0997 20.1814C64.0997 19.6468 64.0321 19.179 63.8969 18.778C63.7616 18.3771 63.5588 17.9761 63.2883 17.7088C63.0178 17.3747 62.6798 17.1742 62.2741 16.9737C61.8684 16.7733 61.3951 16.7065 60.8542 16.7065H55.3097V27.7995H57.3381V23.8568H60.8542C61.3951 23.8568 61.8684 23.79 62.2741 23.5895C62.6798 23.389 63.0178 23.1217 63.2883 22.7876C63.5588 22.4535 63.7616 22.0525 63.8969 21.5847C64.0321 21.1838 64.0997 20.6492 64.0997 20.1814Z" fill="white"/>
<path d="M48.8186 7.95225V0.200469H46.8577V11.2267H48.751L53.9574 3.4081V11.2267H55.9858V0.200469H54.025L48.8186 7.95225Z" fill="white"/>
<path d="M72.9573 4.41049H68.0213V0.200469H65.9929V11.1599H68.0213V6.2816H72.9573V11.1599H74.9858V0.200469H72.9573V4.41049Z" fill="white"/>
<path d="M84.8576 2.07158V0.200469H77.0818V11.2267H85.0605V9.35562H79.0427V6.34845H84.2491V4.47734H79.0427V2.07158H84.8576Z" fill="white"/>
<path d="M44.0178 16.7065H36.783V27.7327H38.8115V18.5776H44.0178V16.7065Z" fill="white"/>
<path d="M48.5481 18.778L48.6834 19.4463L50.0357 22.9213H47.0606L48.3453 19.4463L48.5481 18.778ZM47.331 16.7065L43.1389 27.7995H45.3026L46.452 24.7256H50.7118L51.9289 27.7995H54.025L49.63 16.7065H47.331Z" fill="white"/>
<path d="M68.9004 18.778L69.0356 19.4463L70.3879 22.9213H67.4128L68.6975 19.4463L68.9004 18.778ZM67.6833 16.7065L63.4911 27.7995H65.6548L66.8043 24.7256H71.0641L72.2812 27.7995H74.3773L69.9822 16.7065H67.6833Z" fill="white"/>
<path d="M82.5587 20.9165H77.5551V16.6396H75.5267V27.7327H77.5551V22.7876H82.5587V27.7327H84.5871V16.6396H82.5587V20.9165Z" fill="white"/>
<path d="M85.8043 16.6396V18.5776H89.3879V27.7327H91.4164V18.5776H95V16.6396H85.8043Z" fill="white"/>
    </symbol>
</svg>
