<svg width="17" height="20" viewBox="0 0 17 20" fill="none" xmlns="http://www.w3.org/2000/svg">
<path fill-rule="evenodd" clip-rule="evenodd" d="M8.5 1.66668C6.69653 1.66668 4.96692 2.36906 3.69167 3.61932C2.41643 4.86957 1.7 6.56527 1.7 8.3334C1.7 10.9151 3.41338 13.4203 5.29206 15.3645C6.21402 16.3186 7.13887 17.0997 7.83418 17.6425C8.09295 17.8445 8.31897 18.0128 8.5 18.144C8.68103 18.0128 8.90705 17.8445 9.16582 17.6425C9.86113 17.0997 10.786 16.3186 11.7079 15.3645C13.5866 13.4203 15.3 10.9151 15.3 8.3334C15.3 6.56527 14.5836 4.86957 13.3083 3.61932C12.0331 2.36906 10.3035 1.66668 8.5 1.66668ZM8.5 19.1668C8.02851 19.8602 8.02829 19.8601 8.02804 19.8599L8.02562 19.8583L8.01995 19.8546L8.00047 19.8417C7.98392 19.8306 7.96031 19.8148 7.93012 19.7943C7.86975 19.7533 7.78299 19.6936 7.67362 19.6161C7.45496 19.4613 7.14541 19.2353 6.7752 18.9463C6.03613 18.3693 5.04848 17.5358 4.05794 16.5107C2.11162 14.4966 0 11.585 0 8.3334C5.06639e-08 6.12324 0.895533 4.00361 2.48959 2.4408C4.08365 0.87798 6.24566 0 8.5 0C10.7543 0 12.9163 0.87798 14.5104 2.4408C16.1045 4.00361 17 6.12324 17 8.3334C17 11.585 14.8884 14.4966 12.9421 16.5107C11.9515 17.5358 10.9639 18.3693 10.2248 18.9463C9.85459 19.2353 9.54504 19.4613 9.32638 19.6161C9.21701 19.6936 9.13025 19.7533 9.06988 19.7943C9.03969 19.8148 9.01608 19.8306 8.99953 19.8417L8.98005 19.8546L8.97439 19.8583L8.97259 19.8595C8.97235 19.8596 8.9715 19.8602 8.5 19.1668ZM8.5 19.1668L8.9715 19.8602C8.68598 20.0468 8.31356 20.0465 8.02804 19.8599L8.5 19.1668Z" fill="black"/>
<path fill-rule="evenodd" clip-rule="evenodd" d="M8.5 6.66672C7.56112 6.66672 6.8 7.41291 6.8 8.3334C6.8 9.25388 7.56112 10.0001 8.5 10.0001C9.43888 10.0001 10.2 9.25388 10.2 8.3334C10.2 7.41291 9.43888 6.66672 8.5 6.66672ZM5.1 8.3334C5.1 6.49243 6.62223 5.00004 8.5 5.00004C10.3778 5.00004 11.9 6.49243 11.9 8.3334C11.9 10.1744 10.3778 11.6668 8.5 11.6668C6.62223 11.6668 5.1 10.1744 5.1 8.3334Z" fill="black"/>
</svg>
