<svg width="42" height="42" viewBox="0 0 42 42" fill="none" xmlns="http://www.w3.org/2000/svg">
<path d="M13.5897 5.07437C14.5338 4.22975 14.7808 2.85044 14.1884 1.73069C13.5961 0.610944 12.3169 0.0389781 11.0874 0.344152C9.85798 0.649326 8.99473 1.75309 8.99477 3.01986C8.9948 4.10705 9.6338 5.09269 10.6263 5.53646C11.6188 5.98024 12.7794 5.79925 13.5897 5.07437ZM10.3732 3.01986C10.3732 2.25858 10.9903 1.64145 11.7516 1.64145C12.5128 1.64145 13.13 2.25858 13.13 3.01986C13.13 3.78113 12.5128 4.39826 11.7516 4.39826C10.9903 4.39826 10.3732 3.78113 10.3732 3.01986Z" fill="white"/>
<path d="M31.4876 5.07437C32.4317 4.22975 32.6787 2.85044 32.0863 1.73069C31.494 0.610944 30.2148 0.0389781 28.9853 0.344152C27.7559 0.649326 26.8926 1.75309 26.8927 3.01986C26.8927 4.10705 27.5317 5.09269 28.5242 5.53646C29.5167 5.98024 30.6773 5.79925 31.4876 5.07437ZM28.2711 3.01986C28.2711 2.25858 28.8882 1.64145 29.6495 1.64145C30.4108 1.64145 31.0279 2.25858 31.0279 3.01986C31.0279 3.78113 30.4108 4.39826 29.6495 4.39826C28.8882 4.39826 28.2711 3.78113 28.2711 3.01986Z" fill="white"/>
<path d="M40.0303 15.6812C39.4422 15.388 38.7611 15.3427 38.1394 15.5556C37.5176 15.7684 37.0072 16.2215 36.7221 16.8136L34.241 20.6214C34.015 20.3766 33.7545 20.1663 33.4677 19.997C33.7942 19.5111 33.8902 18.906 33.7303 18.3429L33.5449 17.4242C34.2353 17.512 34.9236 17.2466 35.3763 16.718C35.829 16.1893 35.9854 15.4684 35.7923 14.7997L34.345 9.66791C33.9256 8.18306 32.5715 7.15707 31.0286 7.15507H28.3131C26.7714 7.15599 25.4175 8.17987 24.9967 9.66308L23.5494 14.7907C23.3524 15.4609 23.5072 16.1852 23.9608 16.7164C24.4144 17.2475 25.1055 17.5138 25.7982 17.4242L25.619 18.294C25.3947 19.0577 25.6305 19.8823 26.2248 20.4119V23.0205C25.7385 23.1994 25.2757 23.4366 24.8464 23.727C24.8539 22.381 24.0771 21.1539 22.8574 20.5849C23.7586 19.461 23.6395 17.8321 22.5844 16.8513C21.5292 15.8705 19.896 15.8705 18.8408 16.8513C17.7857 17.8321 17.6666 19.461 18.5678 20.5849C17.347 21.1531 16.569 22.3804 16.576 23.727C16.1468 23.4366 15.6839 23.1994 15.1976 23.0205V18.1823C16.3395 18.1823 17.2652 17.2566 17.2652 16.1147V11.2903C17.2629 9.00742 15.4129 7.15735 13.13 7.15507H10.3732C8.0903 7.15735 6.24023 9.00742 6.23796 11.2903V16.1147C6.23796 17.2566 7.16365 18.1823 8.30556 18.1823V19.8061C7.88155 19.9924 7.50122 20.2655 7.18905 20.6076L4.72171 16.1767C4.45113 15.5711 3.94389 15.1029 3.31849 14.8817C2.40317 14.5489 1.37757 14.7919 0.709002 15.5002C0.0404325 16.2084 -0.143155 17.2463 0.241892 18.141C3.90156 25.5223 3.87606 25.7849 5.03874 26.8063L10.1871 31.4784C9.46187 31.8173 8.99742 32.5443 8.99477 33.3448V39.5476C8.99477 40.6895 9.92047 41.6152 11.0624 41.6152H19.3328C19.8431 41.6134 20.3344 41.4218 20.7112 41.0776C21.088 41.4218 21.5793 41.6134 22.0896 41.6152H30.3601C31.502 41.6152 32.4277 40.6895 32.4277 39.5476V33.3448C32.4249 32.5441 31.9601 31.8171 31.2346 31.4784L36.3754 26.8139C37.018 26.2542 37.5327 25.5629 37.8848 24.7869L41.1654 18.8598C41.7127 17.6678 41.2088 16.2569 40.0303 15.6812ZM25.3433 16.032C25.1666 15.9808 25.0177 15.8609 24.9298 15.6992C24.8418 15.5375 24.8223 15.3474 24.8754 15.1712L26.3227 10.0353C26.5757 9.14592 27.3885 8.5327 28.3131 8.53348H31.0286C31.9535 8.53327 32.7661 9.14741 33.0183 10.0373L34.4656 15.1781C34.526 15.3859 34.4853 15.61 34.3556 15.7833C34.226 15.9565 34.0225 16.0589 33.8061 16.0596C33.5187 16.0627 33.2614 15.8822 33.1665 15.6109L32.4084 12.5047C32.3544 12.2606 32.1725 12.0649 31.933 11.9932C31.6936 11.9216 31.4341 11.9852 31.2549 12.1595C31.0757 12.3337 31.0049 12.5914 31.0699 12.8327C31.9969 16.6233 31.6971 15.2925 32.4015 18.6799C32.4892 18.9843 32.3581 19.3093 32.0837 19.4677C32.0337 19.4965 31.9874 19.5315 31.9459 19.5717C31.389 19.5703 30.8419 19.7173 30.3607 19.9977V19.5607C30.3607 19.1801 30.0522 18.8715 29.6715 18.8715C29.2909 18.8715 28.9823 19.1801 28.9823 19.5607V21.1025L27.6039 22.2845V20.0638C27.6037 19.8179 27.4724 19.5907 27.2593 19.4677C26.9718 19.294 26.8448 18.9429 26.9547 18.6255C27.6439 15.3063 27.3462 16.622 28.2731 12.8327C28.354 12.467 28.1281 12.1037 27.7643 12.0145C27.4005 11.9253 27.0321 12.143 26.9347 12.5047L26.1766 15.6061C26.0545 15.9454 25.6899 16.1318 25.3433 16.032ZM20.7112 17.4931C21.4725 17.4931 22.0896 18.1102 22.0896 18.8715C22.0896 19.6328 21.4725 20.2499 20.7112 20.2499C19.9499 20.2499 19.3328 19.6328 19.3328 18.8715C19.3328 18.1102 19.9499 17.4931 20.7112 17.4931ZM20.022 21.6283H21.4004C22.5423 21.6283 23.468 22.554 23.468 23.6959C23.468 25.3176 23.5225 24.9014 23.3033 25.1922C21.8622 27.173 22.0896 28.796 22.0896 31.2772C21.5793 31.279 21.088 31.4706 20.7112 31.8147C20.3344 31.4706 19.8431 31.279 19.3328 31.2772C19.3328 28.7871 19.5609 27.1737 18.1122 25.1832C17.9055 24.9041 17.9544 25.3025 17.9544 23.6959C17.9544 22.554 18.8801 21.6283 20.022 21.6283ZM7.81485 16.593C7.68625 16.4673 7.61455 16.2945 7.61636 16.1147V11.2903C7.61636 9.76774 8.85063 8.53348 10.3732 8.53348H13.13C14.6525 8.53348 15.8868 9.76774 15.8868 11.2903V16.1147C15.8868 16.4953 15.5782 16.8039 15.1976 16.8039C14.817 16.8039 14.5084 16.4953 14.5084 16.1147V12.6687C14.5084 12.2881 14.1998 11.9795 13.8192 11.9795C13.4385 11.9795 13.13 12.2881 13.13 12.6687V16.1147C13.1307 16.6982 13.3816 17.2533 13.8192 17.6392V22.2845L12.4408 21.1045V19.5607C12.4408 19.1801 12.1322 18.8715 11.7516 18.8715C11.3709 18.8715 11.0624 19.1801 11.0624 19.5607V19.9915C10.643 19.7431 10.1705 19.5985 9.68397 19.5697V17.6399C10.1217 17.2538 10.3727 16.6984 10.3732 16.1147V12.6687C10.3732 12.2881 10.0646 11.9795 9.68397 11.9795C9.30333 11.9795 8.99477 12.2881 8.99477 12.6687V16.1147C8.9925 16.3933 8.82271 16.6431 8.56451 16.7478C8.3063 16.8525 8.01048 16.7914 7.81485 16.593ZM4.75824 24.1474L1.49486 17.5675C1.28406 17.0571 1.50609 16.4706 2.00212 16.2277C2.27288 16.0933 2.58749 16.078 2.87001 16.1856C3.15254 16.2931 3.37732 16.5138 3.4901 16.7943C5.68384 20.7365 6.35857 21.995 6.55085 22.1921C8.14911 23.8358 4.29923 20.0011 11.1471 26.7808C11.419 27.0409 11.8492 27.0349 12.1137 26.7674C12.3782 26.4999 12.3793 26.0696 12.1162 25.8008L8.00576 21.7345L8.33865 21.4099C8.9165 20.8538 9.80433 20.7771 10.469 21.2258C12.8378 23.2569 13.3478 23.8448 14.5029 24.219C16.544 24.8569 17.9391 26.7404 17.9544 28.8787V31.2772H12.0176C5.41712 25.288 5.30546 25.3652 4.75824 24.1474ZM19.3328 40.2368H11.0624C10.6817 40.2368 10.3732 39.9282 10.3732 39.5476V36.1016H17.9544C18.335 36.1016 18.6436 35.793 18.6436 35.4124C18.6436 35.0317 18.335 34.7232 17.9544 34.7232H10.3732V33.3448C10.3732 32.9641 10.6817 32.6556 11.0624 32.6556H19.3328C19.7134 32.6556 20.022 32.9641 20.022 33.3448V39.5476C20.022 39.9282 19.7134 40.2368 19.3328 40.2368ZM30.3601 40.2368H22.0896C21.709 40.2368 21.4004 39.9282 21.4004 39.5476V33.3448C21.4004 32.9641 21.709 32.6556 22.0896 32.6556H30.3601C30.7407 32.6556 31.0493 32.9641 31.0493 33.3448V34.7232H23.468C23.0874 34.7232 22.7788 35.0317 22.7788 35.4124C22.7788 35.793 23.0874 36.1016 23.468 36.1016H31.0493V39.5476C31.0493 39.9282 30.7407 40.2368 30.3601 40.2368ZM39.94 18.2264L36.6539 24.1708C36.1025 25.3928 35.9536 25.3349 29.4055 31.2772H23.468V28.8787C23.4842 26.741 24.8791 24.8583 26.9195 24.2204C28.0995 23.8386 28.5971 23.248 30.9093 21.2624C31.5761 20.7836 32.4892 20.8467 33.0838 21.4126L33.4167 21.7365L29.3063 25.8028C29.0431 26.0717 29.0442 26.5019 29.3087 26.7695C29.5733 27.037 30.0034 27.043 30.2753 26.7829C31.083 25.9834 35.0825 22.0501 34.8716 22.1942C34.9405 22.1252 34.935 22.0646 37.9075 17.5262C38.0259 17.2236 38.2667 16.9853 38.5705 16.8701C38.9583 16.725 39.3951 16.8187 39.6892 17.1101C39.9834 17.4014 40.0813 17.8373 39.94 18.2264Z" fill="white"/>
</svg>
