<svg width="70" height="70" viewBox="0 0 70 70" fill="none" xmlns="http://www.w3.org/2000/svg">
<path d="M68.35 62.7295H53.3991V36.278C53.3991 35.6429 52.8842 35.1279 52.249 35.1279H39.5983V29.3776C39.5983 28.7425 39.0834 28.2275 38.4482 28.2275H25.7975V24.7773C25.7975 24.1422 25.2826 23.6273 24.6475 23.6273H10.8467C10.2116 23.6273 9.69662 24.1422 9.69662 24.7773V62.7295H7.39649V1.77604C7.39649 1.14092 6.88154 0.625977 6.24642 0.625977H1.64616C1.01104 0.625977 0.496094 1.14092 0.496094 1.77604V68.4798C0.496094 69.115 1.01104 69.6299 1.64616 69.6299H68.35C68.9851 69.6299 69.5 69.115 69.5 68.4798V63.8796C69.5 63.2445 68.9851 62.7295 68.35 62.7295ZM51.099 37.4281V62.7295H39.5983V37.4281H51.099ZM37.2982 30.5277V62.7295H25.7975V30.5277H37.2982ZM11.9967 25.9274H23.4974V62.7295H11.9967V25.9274ZM67.1999 67.3298H2.79622V2.92611H5.09636V63.8796C5.09636 64.5147 5.6113 65.0296 6.24642 65.0296H67.1999V67.3298Z" fill="white"/>
<path d="M55.8739 39.5491C56.0115 39.9624 56.3709 40.2622 56.8021 40.324L68.1877 41.9503C68.2421 41.957 68.2966 41.9604 68.3511 41.9604C68.6846 41.9604 69.0014 41.8161 69.2198 41.5639C69.4382 41.3123 69.5365 40.9782 69.4899 40.648L67.8636 29.2625C67.8024 28.8301 67.502 28.4696 67.0876 28.3314C66.6726 28.1939 66.216 28.3028 65.9083 28.6128L63.4678 31.0522L33.3813 0.96291C32.9321 0.514227 32.2038 0.514227 31.7551 0.96291L28.5025 4.21544C28.0533 4.66468 28.0533 5.39246 28.5025 5.8417L58.5918 35.9332L56.1524 38.3709C55.8441 38.6792 55.7363 39.1352 55.8739 39.5491ZM30.9419 5.02857L32.5682 3.40231L62.6569 33.4916C63.1061 33.9402 63.8345 33.9402 64.2832 33.4916L65.9106 31.8653L66.9938 39.4558L59.4038 38.3709L61.0295 36.7435C61.4788 36.2948 61.4788 35.5665 61.0295 35.1178L30.9419 5.02857Z" fill="white"/>
</svg>
