<svg width="58" height="71" viewBox="0 0 58 71" fill="none" xmlns="http://www.w3.org/2000/svg">
<path d="M27.4837 35.5568L27.3777 35.4508L25.61 33.6833C25.61 33.6833 25.61 33.6833 25.61 33.6833C25.1346 33.2081 24.3641 33.2081 23.8885 33.6833C23.4132 34.1586 23.4132 34.9293 23.8885 35.4048L26.6228 38.139L27.4837 35.5568ZM27.4837 35.5568L27.5898 35.4508M27.4837 35.5568L27.5898 35.4508M27.5898 35.4508L33.4588 29.5816C33.4588 29.5816 33.4588 29.5816 33.4588 29.5816M27.5898 35.4508L33.4588 29.5816M33.4588 29.5816C33.9344 29.1064 34.7049 29.1064 35.1803 29.5816M33.4588 29.5816L35.1803 29.5816M35.1803 29.5816C35.6557 30.057 35.6556 30.8278 35.1803 31.3031L28.3444 38.139C28.3444 38.139 28.3444 38.139 28.3444 38.139C28.1066 38.3766 27.7955 38.4955 27.4837 38.4955C27.1719 38.4955 26.8608 38.3767 26.6229 38.1391L35.1803 29.5816ZM29.2013 70.7098L29.2444 70.8534L29.2012 70.7098C29.0873 70.744 28.9694 70.7611 28.8516 70.7611C28.7338 70.7611 28.6161 70.744 28.5019 70.7099C11.5812 65.6357 0.290625 50.1146 0.290625 32.7926V10.4814C0.290625 9.80933 0.835694 9.26426 1.50781 9.26426C5.35999 9.26426 8.49375 6.1305 8.49375 2.27832C8.49375 1.6062 9.03882 1.06113 9.71094 1.06113H47.9922C48.6643 1.06113 49.2094 1.6062 49.2094 2.27832C49.2094 6.1305 52.3431 9.26426 56.1953 9.26426C56.8674 9.26426 57.4125 9.80933 57.4125 10.4814V32.7926C57.4125 50.4932 45.7558 65.7439 29.2013 70.7098ZM28.8069 68.2575L28.8516 68.2714L28.8962 68.2575C44.5146 63.3898 54.9781 49.189 54.9781 32.7926V11.7513V11.6213L54.8495 11.6028C50.7303 11.011 47.4626 7.74337 46.8708 3.62418L46.8523 3.49551H46.7223H10.9808H10.8508L10.8323 3.62418C10.2405 7.74337 6.97286 11.011 2.85367 11.6028L2.725 11.6213V11.7513V32.7926C2.725 49.0997 13.3126 63.4285 28.8069 68.2575ZM42.9341 9.04602L42.8924 8.96426H42.8006H34.3176C33.6455 8.96426 33.1004 8.41919 33.1004 7.74707C33.1004 7.07495 33.6455 6.52988 34.3176 6.52988H43.665C44.1485 6.52988 44.586 6.81591 44.78 7.25873C46.0438 10.1444 48.3292 12.4299 51.2149 13.6936C51.6576 13.8877 51.9437 14.3252 51.9437 14.8086V32.7926C51.9437 47.3989 42.9064 60.1095 29.2576 64.9395C29.1263 64.986 28.989 65.0092 28.8516 65.0092C28.7141 65.0092 28.5769 64.986 28.4455 64.9395C14.7853 60.1054 5.75938 47.3871 5.75938 32.7926V14.8086C5.75938 14.3253 6.04553 13.8877 6.48826 13.6936C9.37389 12.4299 11.6594 10.1444 12.9231 7.25877C13.1172 6.81603 13.5546 6.52988 14.0381 6.52988H23.3855C24.0577 6.52988 24.6027 7.07495 24.6027 7.74707C24.6027 8.41919 24.0577 8.96426 23.3855 8.96426H14.9026H14.8108L14.769 9.04601C13.3388 11.8454 11.0749 14.1093 8.27551 15.5395L8.19375 15.5813V15.6731V32.7926C8.19375 46.2348 16.2647 57.8355 28.7995 62.4787L28.8516 62.498L28.9037 62.4787C41.4384 57.8356 49.5094 46.2348 49.5094 32.7926V15.6731V15.5813L49.4276 15.5395C46.6282 14.1093 44.3642 11.8454 42.9341 9.04602ZM27.6346 7.74721C27.6346 7.07392 28.1762 6.53139 28.8504 6.53139C29.5237 6.53139 30.0662 7.07299 30.0662 7.74721C30.0662 8.46678 29.4502 9.02827 28.7285 8.95666C28.1057 8.89484 27.6346 8.37398 27.6346 7.74721ZM16.6969 33.1768C16.6969 26.4748 22.1496 21.0221 28.8516 21.0221C35.5535 21.0221 41.0062 26.4748 41.0062 33.1768C41.0062 39.8787 35.5535 45.3314 28.8516 45.3314C22.1496 45.3314 16.6969 39.8787 16.6969 33.1768ZM19.1313 33.1768C19.1313 38.5367 23.4917 42.8971 28.8516 42.8971C34.2115 42.8971 38.5719 38.5367 38.5719 33.1768C38.5719 27.8168 34.2115 23.4564 28.8516 23.4564C23.4917 23.4564 19.1313 27.8168 19.1313 33.1768Z" fill="white" stroke="#006198" stroke-width="0.3"/>
</svg>
