<svg width="72" height="71" viewBox="0 0 72 71" fill="none" xmlns="http://www.w3.org/2000/svg">
<mask id="path-1-inside-1" fill="white">
<path d="M27.489 8.38988C26.7289 8.38988 26.112 9.00677 26.112 9.76687C26.112 10.527 26.7289 11.1439 27.489 11.1439C28.2491 11.1439 28.866 10.527 28.866 9.76687C28.866 9.00677 28.2491 8.38988 27.489 8.38988Z"/>
<path d="M65.494 20.232C62.4569 20.232 59.986 22.7029 59.986 25.74V35.5538C58.1568 35.0827 56.1383 35.5692 54.7148 36.9926L45.48 46.2274C44.1787 47.5269 43.4621 49.2564 43.4621 51.0973V59.2009H42.0851C41.3248 59.2009 40.7081 59.8173 40.7081 60.5778V69.2529C40.7081 70.0134 41.3248 70.6299 42.0851 70.6299H61.363C62.1234 70.6299 62.74 70.0134 62.74 69.2529V60.5778C62.74 59.8173 62.1234 59.2009 61.363 59.2009H59.986V58.5509C59.986 58.1889 60.1331 57.8341 60.3898 57.5775L68.9849 48.9823C70.2856 47.6815 71.002 45.9523 71.002 44.1132V25.74C71.002 22.7029 68.5311 20.232 65.494 20.232ZM59.986 67.8759H43.4621V61.9548H59.986V67.8759ZM68.248 44.1132C68.248 45.2167 67.8181 46.2544 67.0375 47.035L58.4423 55.6302C57.6731 56.3994 57.232 57.4639 57.232 58.5509V59.2009H46.2161V51.0973C46.2161 49.9926 46.6457 48.9552 47.4266 48.1754L56.6621 38.9399C57.6957 37.9062 59.356 37.8598 60.4419 38.8342C60.4498 38.8411 60.4576 38.8481 60.4656 38.8548C60.497 38.8817 60.5265 38.9106 60.5562 38.9404C61.0765 39.4602 61.363 40.1514 61.363 40.8869C61.363 41.6223 61.0765 42.3136 60.556 42.8338L53.7137 49.6761C53.176 50.2138 53.176 51.0857 53.7137 51.6235C54.2515 52.1613 55.1232 52.1614 55.6612 51.6235L62.5032 44.7817C63.5438 43.7415 64.117 42.3585 64.117 40.8869C64.117 39.5319 63.6298 38.2524 62.74 37.2461V25.74C62.74 24.2214 63.9754 22.986 65.494 22.986C67.0125 22.986 68.248 24.2214 68.248 25.74V44.1132Z"/>
<path d="M29.4168 59.2009H28.0398V51.0973C28.0398 49.2564 27.3232 47.5269 26.0228 46.2281L16.7873 36.9926C15.3637 35.5689 13.3451 35.0826 11.5159 35.5538V25.74C11.5159 22.7029 9.04506 20.232 6.00797 20.232C2.97087 20.232 0.5 22.7029 0.5 25.74V44.1132C0.5 45.9523 1.21631 47.6815 2.51702 48.9823L11.1122 57.5774C11.3689 57.8341 11.5159 58.1888 11.5159 58.5509V59.2009H10.1389C9.37856 59.2009 8.76195 59.8173 8.76195 60.5778V69.2529C8.76195 70.0134 9.37856 70.6299 10.1389 70.6299H29.4168C30.1772 70.6299 30.7938 70.0134 30.7938 69.2529V60.5778C30.7938 59.8173 30.1772 59.2009 29.4168 59.2009ZM4.4645 47.0351C3.68388 46.2544 3.25398 45.2167 3.25398 44.1132V25.74C3.25398 24.2214 4.48942 22.986 6.00797 22.986C7.52651 22.986 8.76195 24.2214 8.76195 25.74V37.246C7.87214 38.2523 7.38496 39.5316 7.38496 40.8869C7.38496 42.3585 7.9582 43.7415 8.99865 44.7811L15.8836 51.6661C16.4215 52.2038 17.2931 52.2038 17.8311 51.6661C18.3688 51.1284 18.3688 50.2565 17.8311 49.7186L10.9457 42.8332C10.4255 42.3136 10.1389 41.6223 10.1389 40.8869C10.1389 40.1514 10.4255 39.4602 10.9453 38.9405C10.9753 38.9106 11.0049 38.8817 11.0362 38.8548L11.0599 38.8342C12.1456 37.8598 13.8061 37.9064 14.8397 38.9399L24.0759 48.176C24.8561 48.9552 25.2857 49.9925 25.2857 51.0971V59.2009H14.2698V58.5509C14.2699 57.4639 13.8289 56.3994 13.0597 55.6302L4.4645 47.0351ZM28.0398 67.8759H11.5159V61.9548H28.0398V67.8759Z"/>
<path d="M35.751 0.12793C24.3619 0.12793 15.0961 9.3937 15.0961 20.7828C15.0961 32.1719 24.3619 41.4377 35.751 41.4377C47.1401 41.4377 56.4058 32.1719 56.4058 20.7828C56.4058 9.3937 47.1401 0.12793 35.751 0.12793ZM35.751 38.6837C25.8803 38.6837 17.8501 30.6533 17.8501 20.7828C17.8501 10.9122 25.8803 2.88191 35.751 2.88191C45.6217 2.88191 53.6519 10.9122 53.6519 20.7828C53.6519 30.6533 45.6217 38.6837 35.751 38.6837Z"/>
<path d="M45.2597 8.99149C41.6766 6.09843 36.9871 5.0073 32.3957 5.99722C31.6522 6.1575 31.1795 6.89006 31.3398 7.6335C31.5001 8.37679 32.2328 8.8491 32.9761 8.68923C36.7503 7.87543 40.597 8.76649 43.5297 11.1341C46.462 13.5018 48.1439 17.0185 48.1439 20.7828C48.1439 27.6163 42.5844 33.1757 35.751 33.1757C28.9175 33.1757 23.3581 27.6163 23.3581 20.7828C23.3581 18.7415 23.8648 16.7182 24.8234 14.9317C25.183 14.2616 24.9313 13.4269 24.2612 13.0672C23.591 12.7076 22.7562 12.9594 22.3968 13.6295C21.224 15.8152 20.6041 18.2887 20.6041 20.7828C20.6041 29.1348 27.399 35.9297 35.751 35.9297C44.103 35.9297 50.8979 29.1348 50.8979 20.7828C50.8979 16.1821 48.8429 11.8844 45.2597 8.99149Z"/>
</mask>
<path d="M27.489 8.38988C26.7289 8.38988 26.112 9.00677 26.112 9.76687C26.112 10.527 26.7289 11.1439 27.489 11.1439C28.2491 11.1439 28.866 10.527 28.866 9.76687C28.866 9.00677 28.2491 8.38988 27.489 8.38988Z" fill="white"/>
<path d="M65.494 20.232C62.4569 20.232 59.986 22.7029 59.986 25.74V35.5538C58.1568 35.0827 56.1383 35.5692 54.7148 36.9926L45.48 46.2274C44.1787 47.5269 43.4621 49.2564 43.4621 51.0973V59.2009H42.0851C41.3248 59.2009 40.7081 59.8173 40.7081 60.5778V69.2529C40.7081 70.0134 41.3248 70.6299 42.0851 70.6299H61.363C62.1234 70.6299 62.74 70.0134 62.74 69.2529V60.5778C62.74 59.8173 62.1234 59.2009 61.363 59.2009H59.986V58.5509C59.986 58.1889 60.1331 57.8341 60.3898 57.5775L68.9849 48.9823C70.2856 47.6815 71.002 45.9523 71.002 44.1132V25.74C71.002 22.7029 68.5311 20.232 65.494 20.232ZM59.986 67.8759H43.4621V61.9548H59.986V67.8759ZM68.248 44.1132C68.248 45.2167 67.8181 46.2544 67.0375 47.035L58.4423 55.6302C57.6731 56.3994 57.232 57.4639 57.232 58.5509V59.2009H46.2161V51.0973C46.2161 49.9926 46.6457 48.9552 47.4266 48.1754L56.6621 38.9399C57.6957 37.9062 59.356 37.8598 60.4419 38.8342C60.4498 38.8411 60.4576 38.8481 60.4656 38.8548C60.497 38.8817 60.5265 38.9106 60.5562 38.9404C61.0765 39.4602 61.363 40.1514 61.363 40.8869C61.363 41.6223 61.0765 42.3136 60.556 42.8338L53.7137 49.6761C53.176 50.2138 53.176 51.0857 53.7137 51.6235C54.2515 52.1613 55.1232 52.1614 55.6612 51.6235L62.5032 44.7817C63.5438 43.7415 64.117 42.3585 64.117 40.8869C64.117 39.5319 63.6298 38.2524 62.74 37.2461V25.74C62.74 24.2214 63.9754 22.986 65.494 22.986C67.0125 22.986 68.248 24.2214 68.248 25.74V44.1132Z" fill="white"/>
<path d="M29.4168 59.2009H28.0398V51.0973C28.0398 49.2564 27.3232 47.5269 26.0228 46.2281L16.7873 36.9926C15.3637 35.5689 13.3451 35.0826 11.5159 35.5538V25.74C11.5159 22.7029 9.04506 20.232 6.00797 20.232C2.97087 20.232 0.5 22.7029 0.5 25.74V44.1132C0.5 45.9523 1.21631 47.6815 2.51702 48.9823L11.1122 57.5774C11.3689 57.8341 11.5159 58.1888 11.5159 58.5509V59.2009H10.1389C9.37856 59.2009 8.76195 59.8173 8.76195 60.5778V69.2529C8.76195 70.0134 9.37856 70.6299 10.1389 70.6299H29.4168C30.1772 70.6299 30.7938 70.0134 30.7938 69.2529V60.5778C30.7938 59.8173 30.1772 59.2009 29.4168 59.2009ZM4.4645 47.0351C3.68388 46.2544 3.25398 45.2167 3.25398 44.1132V25.74C3.25398 24.2214 4.48942 22.986 6.00797 22.986C7.52651 22.986 8.76195 24.2214 8.76195 25.74V37.246C7.87214 38.2523 7.38496 39.5316 7.38496 40.8869C7.38496 42.3585 7.9582 43.7415 8.99865 44.7811L15.8836 51.6661C16.4215 52.2038 17.2931 52.2038 17.8311 51.6661C18.3688 51.1284 18.3688 50.2565 17.8311 49.7186L10.9457 42.8332C10.4255 42.3136 10.1389 41.6223 10.1389 40.8869C10.1389 40.1514 10.4255 39.4602 10.9453 38.9405C10.9753 38.9106 11.0049 38.8817 11.0362 38.8548L11.0599 38.8342C12.1456 37.8598 13.8061 37.9064 14.8397 38.9399L24.0759 48.176C24.8561 48.9552 25.2857 49.9925 25.2857 51.0971V59.2009H14.2698V58.5509C14.2699 57.4639 13.8289 56.3994 13.0597 55.6302L4.4645 47.0351ZM28.0398 67.8759H11.5159V61.9548H28.0398V67.8759Z" fill="white"/>
<path d="M35.751 0.12793C24.3619 0.12793 15.0961 9.3937 15.0961 20.7828C15.0961 32.1719 24.3619 41.4377 35.751 41.4377C47.1401 41.4377 56.4058 32.1719 56.4058 20.7828C56.4058 9.3937 47.1401 0.12793 35.751 0.12793ZM35.751 38.6837C25.8803 38.6837 17.8501 30.6533 17.8501 20.7828C17.8501 10.9122 25.8803 2.88191 35.751 2.88191C45.6217 2.88191 53.6519 10.9122 53.6519 20.7828C53.6519 30.6533 45.6217 38.6837 35.751 38.6837Z" fill="white"/>
<path d="M45.2597 8.99149C41.6766 6.09843 36.9871 5.0073 32.3957 5.99722C31.6522 6.1575 31.1795 6.89006 31.3398 7.6335C31.5001 8.37679 32.2328 8.8491 32.9761 8.68923C36.7503 7.87543 40.597 8.76649 43.5297 11.1341C46.462 13.5018 48.1439 17.0185 48.1439 20.7828C48.1439 27.6163 42.5844 33.1757 35.751 33.1757C28.9175 33.1757 23.3581 27.6163 23.3581 20.7828C23.3581 18.7415 23.8648 16.7182 24.8234 14.9317C25.183 14.2616 24.9313 13.4269 24.2612 13.0672C23.591 12.7076 22.7562 12.9594 22.3968 13.6295C21.224 15.8152 20.6041 18.2887 20.6041 20.7828C20.6041 29.1348 27.399 35.9297 35.751 35.9297C44.103 35.9297 50.8979 29.1348 50.8979 20.7828C50.8979 16.1821 48.8429 11.8844 45.2597 8.99149Z" fill="white"/>
<path d="M27.489 8.38988C26.7289 8.38988 26.112 9.00677 26.112 9.76687C26.112 10.527 26.7289 11.1439 27.489 11.1439C28.2491 11.1439 28.866 10.527 28.866 9.76687C28.866 9.00677 28.2491 8.38988 27.489 8.38988Z" stroke="#006198" stroke-width="0.6" mask="url(#path-1-inside-1)"/>
<path d="M65.494 20.232C62.4569 20.232 59.986 22.7029 59.986 25.74V35.5538C58.1568 35.0827 56.1383 35.5692 54.7148 36.9926L45.48 46.2274C44.1787 47.5269 43.4621 49.2564 43.4621 51.0973V59.2009H42.0851C41.3248 59.2009 40.7081 59.8173 40.7081 60.5778V69.2529C40.7081 70.0134 41.3248 70.6299 42.0851 70.6299H61.363C62.1234 70.6299 62.74 70.0134 62.74 69.2529V60.5778C62.74 59.8173 62.1234 59.2009 61.363 59.2009H59.986V58.5509C59.986 58.1889 60.1331 57.8341 60.3898 57.5775L68.9849 48.9823C70.2856 47.6815 71.002 45.9523 71.002 44.1132V25.74C71.002 22.7029 68.5311 20.232 65.494 20.232ZM59.986 67.8759H43.4621V61.9548H59.986V67.8759ZM68.248 44.1132C68.248 45.2167 67.8181 46.2544 67.0375 47.035L58.4423 55.6302C57.6731 56.3994 57.232 57.4639 57.232 58.5509V59.2009H46.2161V51.0973C46.2161 49.9926 46.6457 48.9552 47.4266 48.1754L56.6621 38.9399C57.6957 37.9062 59.356 37.8598 60.4419 38.8342C60.4498 38.8411 60.4576 38.8481 60.4656 38.8548C60.497 38.8817 60.5265 38.9106 60.5562 38.9404C61.0765 39.4602 61.363 40.1514 61.363 40.8869C61.363 41.6223 61.0765 42.3136 60.556 42.8338L53.7137 49.6761C53.176 50.2138 53.176 51.0857 53.7137 51.6235C54.2515 52.1613 55.1232 52.1614 55.6612 51.6235L62.5032 44.7817C63.5438 43.7415 64.117 42.3585 64.117 40.8869C64.117 39.5319 63.6298 38.2524 62.74 37.2461V25.74C62.74 24.2214 63.9754 22.986 65.494 22.986C67.0125 22.986 68.248 24.2214 68.248 25.74V44.1132Z" stroke="#006198" stroke-width="0.6" mask="url(#path-1-inside-1)"/>
<path d="M29.4168 59.2009H28.0398V51.0973C28.0398 49.2564 27.3232 47.5269 26.0228 46.2281L16.7873 36.9926C15.3637 35.5689 13.3451 35.0826 11.5159 35.5538V25.74C11.5159 22.7029 9.04506 20.232 6.00797 20.232C2.97087 20.232 0.5 22.7029 0.5 25.74V44.1132C0.5 45.9523 1.21631 47.6815 2.51702 48.9823L11.1122 57.5774C11.3689 57.8341 11.5159 58.1888 11.5159 58.5509V59.2009H10.1389C9.37856 59.2009 8.76195 59.8173 8.76195 60.5778V69.2529C8.76195 70.0134 9.37856 70.6299 10.1389 70.6299H29.4168C30.1772 70.6299 30.7938 70.0134 30.7938 69.2529V60.5778C30.7938 59.8173 30.1772 59.2009 29.4168 59.2009ZM4.4645 47.0351C3.68388 46.2544 3.25398 45.2167 3.25398 44.1132V25.74C3.25398 24.2214 4.48942 22.986 6.00797 22.986C7.52651 22.986 8.76195 24.2214 8.76195 25.74V37.246C7.87214 38.2523 7.38496 39.5316 7.38496 40.8869C7.38496 42.3585 7.9582 43.7415 8.99865 44.7811L15.8836 51.6661C16.4215 52.2038 17.2931 52.2038 17.8311 51.6661C18.3688 51.1284 18.3688 50.2565 17.8311 49.7186L10.9457 42.8332C10.4255 42.3136 10.1389 41.6223 10.1389 40.8869C10.1389 40.1514 10.4255 39.4602 10.9453 38.9405C10.9753 38.9106 11.0049 38.8817 11.0362 38.8548L11.0599 38.8342C12.1456 37.8598 13.8061 37.9064 14.8397 38.9399L24.0759 48.176C24.8561 48.9552 25.2857 49.9925 25.2857 51.0971V59.2009H14.2698V58.5509C14.2699 57.4639 13.8289 56.3994 13.0597 55.6302L4.4645 47.0351ZM28.0398 67.8759H11.5159V61.9548H28.0398V67.8759Z" stroke="#006198" stroke-width="0.6" mask="url(#path-1-inside-1)"/>
<path d="M35.751 0.12793C24.3619 0.12793 15.0961 9.3937 15.0961 20.7828C15.0961 32.1719 24.3619 41.4377 35.751 41.4377C47.1401 41.4377 56.4058 32.1719 56.4058 20.7828C56.4058 9.3937 47.1401 0.12793 35.751 0.12793ZM35.751 38.6837C25.8803 38.6837 17.8501 30.6533 17.8501 20.7828C17.8501 10.9122 25.8803 2.88191 35.751 2.88191C45.6217 2.88191 53.6519 10.9122 53.6519 20.7828C53.6519 30.6533 45.6217 38.6837 35.751 38.6837Z" stroke="#006198" stroke-width="0.6" mask="url(#path-1-inside-1)"/>
<path d="M45.2597 8.99149C41.6766 6.09843 36.9871 5.0073 32.3957 5.99722C31.6522 6.1575 31.1795 6.89006 31.3398 7.6335C31.5001 8.37679 32.2328 8.8491 32.9761 8.68923C36.7503 7.87543 40.597 8.76649 43.5297 11.1341C46.462 13.5018 48.1439 17.0185 48.1439 20.7828C48.1439 27.6163 42.5844 33.1757 35.751 33.1757C28.9175 33.1757 23.3581 27.6163 23.3581 20.7828C23.3581 18.7415 23.8648 16.7182 24.8234 14.9317C25.183 14.2616 24.9313 13.4269 24.2612 13.0672C23.591 12.7076 22.7562 12.9594 22.3968 13.6295C21.224 15.8152 20.6041 18.2887 20.6041 20.7828C20.6041 29.1348 27.399 35.9297 35.751 35.9297C44.103 35.9297 50.8979 29.1348 50.8979 20.7828C50.8979 16.1821 48.8429 11.8844 45.2597 8.99149Z" stroke="#006198" stroke-width="0.6" mask="url(#path-1-inside-1)"/>
</svg>
