<svg xmlns="http://www.w3.org/2000/svg">
<symbol id="qv-04" width="79" height="78" viewBox="0 0 79 78" fill="none">
<path d="M54.7378 31.5424H61.9115C63.7643 31.5424 65.2721 30.0346 65.2721 28.1818V17.2173L73.5627 5.94467C74.0019 5.34089 74.2337 4.62844 74.2337 3.88126V3.68411C74.2337 1.74952 72.661 0.176758 70.7264 0.176758C69.8033 0.176758 68.9318 0.531862 68.2743 1.1771L65.2721 4.11315V3.53736C65.2721 1.68455 63.7643 0.176758 61.9115 0.176758H17.1035C15.2507 0.176758 13.7429 1.68455 13.7429 3.53736V4.11315L10.7418 1.1771C10.082 0.531862 9.21165 0.176758 8.2886 0.176758C6.35401 0.176758 4.78125 1.74952 4.78125 3.68411V3.88126C4.78125 4.62844 5.01313 5.34089 5.45561 5.94916L13.7429 17.2184V28.1818C13.7429 30.0346 15.2507 31.5424 17.1035 31.5424H24.2772L29.6979 38.9133L22.3001 46.1498C20.7195 45.4105 18.9619 44.9848 17.1035 44.9848C10.3094 44.9848 4.78125 50.513 4.78125 57.307C4.78125 64.101 10.3094 69.6292 17.1035 69.6292C23.8975 69.6292 29.4257 64.101 29.4257 57.307C29.4257 54.8874 28.7144 52.6358 27.5057 50.7292L32.4581 45.7768L30.8741 44.1928L26.1256 48.9414C25.5722 48.3454 24.9628 47.8044 24.3019 47.326L31.0388 40.7359L33.0036 43.4076C33.1974 43.6697 33.4954 43.8366 33.8213 43.8601C34.1484 43.8837 34.4677 43.766 34.6985 43.5353L39.5075 38.7274L51.5093 50.7292C50.3006 52.6358 49.5893 54.8874 49.5893 57.307C49.5893 64.101 55.1175 69.6292 61.9115 69.6292C68.7055 69.6292 74.2337 64.101 74.2337 57.307C74.2337 50.513 68.7055 44.9848 61.9115 44.9848C60.0531 44.9848 58.2955 45.4105 56.7138 46.1498L49.316 38.9133L54.7378 31.5424ZM17.1035 67.3888C11.545 67.3888 7.02165 62.8666 7.02165 57.307C7.02165 51.7475 11.545 47.2252 17.1035 47.2252C22.6619 47.2252 27.1853 51.7475 27.1853 57.307C27.1853 62.8666 22.6619 67.3888 17.1035 67.3888ZM47.6984 37.3305L41.7815 31.5424H51.9563L47.6984 37.3305ZM61.9115 29.302H39.5075V29.3177L23.4606 13.6192H63.0317V28.1818C63.0317 28.8001 62.5287 29.302 61.9115 29.302ZM63.0317 11.3788H21.1698L16.5893 6.89797H63.0317V11.3788ZM69.8414 2.77787C70.0789 2.54486 70.3926 2.41716 70.7264 2.41716C71.4254 2.41716 71.9933 2.9851 71.9933 3.68411V3.88126C71.9933 4.15123 71.9093 4.40888 71.7547 4.62172L65.2721 13.4355V7.24747L69.8414 2.77787ZM17.1035 2.41716H61.9115C62.5287 2.41716 63.0317 2.91901 63.0317 3.53736V4.65756H15.9833V3.53736C15.9833 2.91901 16.4862 2.41716 17.1035 2.41716ZM17.1035 29.302C16.4862 29.302 15.9833 28.8001 15.9833 28.1818V20.2642L22.6294 29.302H17.1035ZM71.9933 57.307C71.9933 62.8666 67.47 67.3888 61.9115 67.3888C56.3531 67.3888 51.8297 62.8666 51.8297 57.307C51.8297 51.7475 56.3531 47.2252 61.9115 47.2252C67.47 47.2252 71.9933 51.7475 71.9933 57.307ZM52.8894 48.9414L40.2995 36.3514C39.8615 35.9134 39.1535 35.9134 38.7155 36.3514L34.0364 41.0305L7.26362 4.6262C7.10567 4.40776 7.02165 4.15123 7.02165 3.88126V3.68411C7.02165 2.9851 7.58959 2.41716 8.2886 2.41716C8.62242 2.41716 8.9372 2.54486 9.17468 2.77787L54.7131 47.326C54.0522 47.8044 53.4428 48.3454 52.8894 48.9414Z" fill="white"/>
<path d="M33.9065 32.6626H36.1469V34.903H33.9065V32.6626Z" fill="white"/>
<path d="M55.1903 15.8596C54.3927 15.8596 53.6377 16.0321 52.9499 16.3345C52.2621 16.0321 51.5071 15.8596 50.7095 15.8596C47.6211 15.8596 45.1085 18.3722 45.1085 21.4606C45.1085 24.549 47.6211 27.0616 50.7095 27.0616C51.5071 27.0616 52.2621 26.8891 52.9499 26.5866C53.6377 26.8891 54.3927 27.0616 55.1903 27.0616C58.2787 27.0616 60.7913 24.549 60.7913 21.4606C60.7913 18.3722 58.2787 15.8596 55.1903 15.8596ZM54.0701 21.4606C54.0701 22.4497 53.6321 23.3313 52.9499 23.9474C52.2677 23.3324 51.8297 22.4497 51.8297 21.4606C51.8297 20.4714 52.2677 19.5898 52.9499 18.9737C53.6321 19.5898 54.0701 20.4714 54.0701 21.4606ZM47.3489 21.4606C47.3489 19.6078 48.8567 18.1 50.7095 18.1C50.7185 18.1 50.7274 18.1022 50.7364 18.1022C50.0262 19.0409 49.5893 20.1959 49.5893 21.4606C49.5893 22.7253 50.0262 23.8802 50.7364 24.8189C50.7274 24.8189 50.7185 24.8212 50.7095 24.8212C48.8567 24.8212 47.3489 23.3134 47.3489 21.4606ZM55.1903 24.8212C55.1813 24.8212 55.1724 24.8189 55.1634 24.8189C55.8736 23.8802 56.3105 22.7253 56.3105 21.4606C56.3105 20.1959 55.8736 19.0409 55.1634 18.1022C55.1724 18.1022 55.1813 18.1 55.1903 18.1C57.0431 18.1 58.5509 19.6078 58.5509 21.4606C58.5509 23.3134 57.0431 24.8212 55.1903 24.8212Z" fill="white"/>
<path d="M17.1035 49.4656C12.7795 49.4656 9.26206 52.9842 9.26206 57.307C9.26206 61.6299 12.7795 65.1484 17.1035 65.1484C21.4274 65.1484 24.9449 61.6299 24.9449 57.307C24.9449 52.9842 21.4274 49.4656 17.1035 49.4656ZM17.1035 62.908C14.0151 62.908 11.5025 60.3954 11.5025 57.307C11.5025 54.2186 14.0151 51.706 17.1035 51.706C20.1919 51.706 22.7045 54.2186 22.7045 57.307C22.7045 60.3954 20.1919 62.908 17.1035 62.908Z" fill="white"/>
<path d="M61.9115 65.1484C66.2355 65.1484 69.7529 61.6299 69.7529 57.307C69.7529 52.9842 66.2355 49.4656 61.9115 49.4656C57.5875 49.4656 54.0701 52.9842 54.0701 57.307C54.0701 61.6299 57.5875 65.1484 61.9115 65.1484ZM61.9115 51.706C64.9999 51.706 67.5125 54.2186 67.5125 57.307C67.5125 60.3954 64.9999 62.908 61.9115 62.908C58.8231 62.908 56.3105 60.3954 56.3105 57.307C56.3105 54.2186 58.8231 51.706 61.9115 51.706Z" fill="white"/>
<path d="M54.7378 31.5424H61.9115C63.7643 31.5424 65.2721 30.0346 65.2721 28.1818V17.2173L73.5627 5.94467C74.0019 5.34089 74.2337 4.62844 74.2337 3.88126V3.68411C74.2337 1.74952 72.661 0.176758 70.7264 0.176758C69.8033 0.176758 68.9318 0.531862 68.2743 1.1771L65.2721 4.11315V3.53736C65.2721 1.68455 63.7643 0.176758 61.9115 0.176758H17.1035C15.2507 0.176758 13.7429 1.68455 13.7429 3.53736V4.11315L10.7418 1.1771C10.082 0.531862 9.21165 0.176758 8.2886 0.176758C6.35401 0.176758 4.78125 1.74952 4.78125 3.68411V3.88126C4.78125 4.62844 5.01313 5.34089 5.45561 5.94916L13.7429 17.2184V28.1818C13.7429 30.0346 15.2507 31.5424 17.1035 31.5424H24.2772L29.6979 38.9133L22.3001 46.1498C20.7195 45.4105 18.9619 44.9848 17.1035 44.9848C10.3094 44.9848 4.78125 50.513 4.78125 57.307C4.78125 64.101 10.3094 69.6292 17.1035 69.6292C23.8975 69.6292 29.4257 64.101 29.4257 57.307C29.4257 54.8874 28.7144 52.6358 27.5057 50.7292L32.4581 45.7768L30.8741 44.1928L26.1256 48.9414C25.5722 48.3454 24.9628 47.8044 24.3019 47.326L31.0388 40.7359L33.0036 43.4076C33.1974 43.6697 33.4954 43.8366 33.8213 43.8601C34.1484 43.8837 34.4677 43.766 34.6985 43.5353L39.5075 38.7274L51.5093 50.7292C50.3006 52.6358 49.5893 54.8874 49.5893 57.307C49.5893 64.101 55.1175 69.6292 61.9115 69.6292C68.7055 69.6292 74.2337 64.101 74.2337 57.307C74.2337 50.513 68.7055 44.9848 61.9115 44.9848C60.0531 44.9848 58.2955 45.4105 56.7138 46.1498L49.316 38.9133L54.7378 31.5424ZM17.1035 67.3888C11.545 67.3888 7.02165 62.8666 7.02165 57.307C7.02165 51.7475 11.545 47.2252 17.1035 47.2252C22.6619 47.2252 27.1853 51.7475 27.1853 57.307C27.1853 62.8666 22.6619 67.3888 17.1035 67.3888ZM47.6984 37.3305L41.7815 31.5424H51.9563L47.6984 37.3305ZM61.9115 29.302H39.5075V29.3177L23.4606 13.6192H63.0317V28.1818C63.0317 28.8001 62.5287 29.302 61.9115 29.302ZM63.0317 11.3788H21.1698L16.5893 6.89797H63.0317V11.3788ZM69.8414 2.77787C70.0789 2.54486 70.3926 2.41716 70.7264 2.41716C71.4254 2.41716 71.9933 2.9851 71.9933 3.68411V3.88126C71.9933 4.15123 71.9093 4.40888 71.7547 4.62172L65.2721 13.4355V7.24747L69.8414 2.77787ZM17.1035 2.41716H61.9115C62.5287 2.41716 63.0317 2.91901 63.0317 3.53736V4.65756H15.9833V3.53736C15.9833 2.91901 16.4862 2.41716 17.1035 2.41716ZM17.1035 29.302C16.4862 29.302 15.9833 28.8001 15.9833 28.1818V20.2642L22.6294 29.302H17.1035ZM71.9933 57.307C71.9933 62.8666 67.47 67.3888 61.9115 67.3888C56.3531 67.3888 51.8297 62.8666 51.8297 57.307C51.8297 51.7475 56.3531 47.2252 61.9115 47.2252C67.47 47.2252 71.9933 51.7475 71.9933 57.307ZM52.8894 48.9414L40.2995 36.3514C39.8615 35.9134 39.1535 35.9134 38.7155 36.3514L34.0364 41.0305L7.26362 4.6262C7.10567 4.40776 7.02165 4.15123 7.02165 3.88126V3.68411C7.02165 2.9851 7.58959 2.41716 8.2886 2.41716C8.62242 2.41716 8.9372 2.54486 9.17468 2.77787L54.7131 47.326C54.0522 47.8044 53.4428 48.3454 52.8894 48.9414Z" stroke="#006198" stroke-width="0.3"/>
<path d="M33.9065 32.6626H36.1469V34.903H33.9065V32.6626Z" stroke="#006198" stroke-width="0.3"/>
<path d="M55.1903 15.8596C54.3927 15.8596 53.6377 16.0321 52.9499 16.3345C52.2621 16.0321 51.5071 15.8596 50.7095 15.8596C47.6211 15.8596 45.1085 18.3722 45.1085 21.4606C45.1085 24.549 47.6211 27.0616 50.7095 27.0616C51.5071 27.0616 52.2621 26.8891 52.9499 26.5866C53.6377 26.8891 54.3927 27.0616 55.1903 27.0616C58.2787 27.0616 60.7913 24.549 60.7913 21.4606C60.7913 18.3722 58.2787 15.8596 55.1903 15.8596ZM54.0701 21.4606C54.0701 22.4497 53.6321 23.3313 52.9499 23.9474C52.2677 23.3324 51.8297 22.4497 51.8297 21.4606C51.8297 20.4714 52.2677 19.5898 52.9499 18.9737C53.6321 19.5898 54.0701 20.4714 54.0701 21.4606ZM47.3489 21.4606C47.3489 19.6078 48.8567 18.1 50.7095 18.1C50.7185 18.1 50.7274 18.1022 50.7364 18.1022C50.0262 19.0409 49.5893 20.1959 49.5893 21.4606C49.5893 22.7253 50.0262 23.8802 50.7364 24.8189C50.7274 24.8189 50.7185 24.8212 50.7095 24.8212C48.8567 24.8212 47.3489 23.3134 47.3489 21.4606ZM55.1903 24.8212C55.1813 24.8212 55.1724 24.8189 55.1634 24.8189C55.8736 23.8802 56.3105 22.7253 56.3105 21.4606C56.3105 20.1959 55.8736 19.0409 55.1634 18.1022C55.1724 18.1022 55.1813 18.1 55.1903 18.1C57.0431 18.1 58.5509 19.6078 58.5509 21.4606C58.5509 23.3134 57.0431 24.8212 55.1903 24.8212Z" stroke="#006198" stroke-width="0.3"/>
<path d="M17.1035 49.4656C12.7795 49.4656 9.26206 52.9842 9.26206 57.307C9.26206 61.6299 12.7795 65.1484 17.1035 65.1484C21.4274 65.1484 24.9449 61.6299 24.9449 57.307C24.9449 52.9842 21.4274 49.4656 17.1035 49.4656ZM17.1035 62.908C14.0151 62.908 11.5025 60.3954 11.5025 57.307C11.5025 54.2186 14.0151 51.706 17.1035 51.706C20.1919 51.706 22.7045 54.2186 22.7045 57.307C22.7045 60.3954 20.1919 62.908 17.1035 62.908Z" stroke="#006198" stroke-width="0.3"/>
<path d="M61.9115 65.1484C66.2355 65.1484 69.7529 61.6299 69.7529 57.307C69.7529 52.9842 66.2355 49.4656 61.9115 49.4656C57.5875 49.4656 54.0701 52.9842 54.0701 57.307C54.0701 61.6299 57.5875 65.1484 61.9115 65.1484ZM61.9115 51.706C64.9999 51.706 67.5125 54.2186 67.5125 57.307C67.5125 60.3954 64.9999 62.908 61.9115 62.908C58.8231 62.908 56.3105 60.3954 56.3105 57.307C56.3105 54.2186 58.8231 51.706 61.9115 51.706Z" stroke="#006198" stroke-width="0.3"/>
<defs>
<filter id="filter0_d" x="0.632812" y="0.0263672" width="77.7525" height="77.7525" filterUnits="userSpaceOnUse" color-interpolation-filters="sRGB">
<feFlood flood-opacity="0" result="BackgroundImageFix"/>
<feColorMatrix in="SourceAlpha" type="matrix" values="0 0 0 0 0 0 0 0 0 0 0 0 0 0 0 0 0 0 127 0"/>
<feOffset dy="4"/>
<feGaussianBlur stdDeviation="2"/>
<feColorMatrix type="matrix" values="0 0 0 0 0 0 0 0 0 0 0 0 0 0 0 0 0 0 0.25 0"/>
<feBlend mode="normal" in2="BackgroundImageFix" result="effect1_dropShadow"/>
<feBlend mode="normal" in="SourceGraphic" in2="effect1_dropShadow" result="shape"/>
</filter>
</defs>
</symbol>
</svg>
