<svg width="55" height="121" viewBox="0 0 55 121" fill="none" xmlns="http://www.w3.org/2000/svg">
<path d="M47.257 35.5052C45.7732 35.5052 44.3932 35.9958 43.2494 36.8341C42.2703 33.8208 39.6391 31.6418 36.5174 31.6418C35.0336 31.6418 33.6535 32.1325 32.5098 32.9708C31.5307 29.9574 28.8995 27.7785 25.7778 27.7785C24.4676 27.7785 23.2558 28.188 22.198 28.8525V8.46198C22.198 4.20074 18.9868 0.735352 15.0382 0.735352C11.0896 0.735352 7.87849 4.20074 7.87849 8.46198V43.2318C3.92989 43.2318 0.71875 46.6972 0.71875 50.9584V78.0016C0.71875 85.1854 5.29203 91.2238 11.4584 92.9468V101.181H6.08855C5.10051 101.181 4.29862 102.047 4.29862 103.113V118.566C4.29862 119.633 5.10051 120.498 6.08855 120.498H49.047C50.035 120.498 50.8369 119.633 50.8369 118.566V103.113C50.8369 102.047 50.035 101.181 49.047 101.181H43.6772V91.3648C47.9497 88.6875 50.8369 83.7077 50.8369 78.0016V65.3376C52.9669 63.9971 54.4168 61.5323 54.4168 58.685V43.2318C54.4168 38.9705 51.2056 35.5052 47.257 35.5052ZM36.5174 35.5052C38.4917 35.5052 40.0973 37.2379 40.0973 39.3685V62.5483H32.9376V39.3685C32.9376 37.2379 34.5431 35.5052 36.5174 35.5052ZM25.7778 31.6418C27.7521 31.6418 29.3577 33.3745 29.3577 35.5052V62.5483H22.198V57.611C24.328 56.2705 25.7778 53.8057 25.7778 50.9584C25.7778 48.1111 24.328 45.6464 22.198 44.3058V35.5052C22.198 33.3745 23.8035 31.6418 25.7778 31.6418ZM18.6181 62.5483H15.0382V58.685H18.6181V62.5483ZM11.4584 8.46198C11.4584 6.33136 13.0639 4.59866 15.0382 4.59866C17.0125 4.59866 18.6181 6.33136 18.6181 8.46198V43.2318H11.4584V8.46198ZM47.257 116.635H7.87849V105.045H47.257V116.635ZM47.257 78.0016C47.257 84.3934 42.4403 89.5915 36.5174 89.5915V93.4548C37.7561 93.4548 38.95 93.2675 40.0973 92.9468V101.181H15.0382V93.4548H18.6181V89.5915H15.0382C9.11533 89.5915 4.29862 84.3934 4.29862 78.0016V50.9584C4.29862 48.8278 5.90419 47.0951 7.87849 47.0951H18.6181C20.5924 47.0951 22.198 48.8278 22.198 50.9584C22.198 53.089 20.5924 54.8217 18.6181 54.8217H13.2483C12.2602 54.8217 11.4584 55.6871 11.4584 56.7534V70.275H7.87849V74.1383H15.0382C18.9868 74.1383 22.198 77.6037 22.198 81.8649H25.7778C25.7778 79.7343 27.3834 78.0016 29.3577 78.0016H36.5174V74.1383H29.3577C27.4514 74.1383 25.7259 74.9592 24.4408 76.2766C22.6096 72.703 19.0835 70.275 15.0382 70.275V66.4117H47.257V78.0016ZM50.8369 58.685C50.8369 60.8156 49.2313 62.5483 47.257 62.5483H43.6772V43.2318C43.6772 41.1012 45.2827 39.3685 47.257 39.3685C49.2313 39.3685 50.8369 41.1012 50.8369 43.2318V58.685Z" fill="white"/>
</svg>
