<svg width="34" height="41" viewBox="0 0 34 41" fill="none" xmlns="http://www.w3.org/2000/svg">
<path d="M26.0138 12.5975L28.4743 10.0307L28.8535 10.4136C29.1588 10.7218 29.5658 10.8925 29.9996 10.8943H30.0073C30.438 10.8943 30.8434 10.7276 31.1497 10.4241L32.9408 8.64997C33.5766 8.01979 33.5815 6.98976 32.9513 6.35372L30.4498 3.82867C30.2139 3.59062 29.8295 3.58877 29.5911 3.82466C29.3531 4.06055 29.3512 4.44527 29.5871 4.68332L32.0887 7.20837C32.2477 7.36861 32.2464 7.62828 32.0859 7.78729L30.2951 9.56174C30.2179 9.638 30.1157 9.6803 30.007 9.6803H30.0048C29.8955 9.67968 29.793 9.63677 29.7158 9.55896L28.9322 8.76792C28.9217 8.75556 28.9112 8.74321 28.8995 8.73148L24.0109 3.80058C23.8522 3.64033 23.8531 3.38035 24.0137 3.22165L25.8045 1.44721C25.965 1.2885 26.2247 1.28974 26.3837 1.44998L28.0374 3.11945C28.2733 3.35751 28.6577 3.35936 28.8961 3.12347C29.1341 2.88726 29.136 2.50286 28.9001 2.2648L27.2461 0.595335C26.6162 -0.0407113 25.5859 -0.0453427 24.9498 0.584837L23.159 2.35897C22.657 2.85639 22.5501 3.60235 22.8364 4.20752L20.2215 3.88549C18.9021 3.72308 17.5689 4.20289 16.6556 5.169L12.4966 9.56884H9.34476C8.3524 9.56884 7.5453 10.3762 7.5453 11.3686V18.1749C7.5453 18.5102 7.81701 18.7819 8.15233 18.7819C8.48764 18.7819 8.75935 18.5102 8.75935 18.1749V11.3686C8.75935 11.0456 9.0218 10.7832 9.34476 10.7832H15.9294C15.7481 11.1145 15.645 11.4943 15.645 11.8978C15.645 13.1826 16.6905 14.228 17.9752 14.228H22.1914C22.9722 14.228 23.7398 14.0508 24.4382 13.7238V24.792H8.75966V15.3401C8.75966 15.0048 8.48795 14.7331 8.15264 14.7331C7.81732 14.7331 7.5453 15.0048 7.5453 15.3401V16.3519H5.96294C5.28769 16.3519 4.67819 16.7523 4.40988 17.3726L0.686191 27.1978C0.612706 27.367 0.577816 27.5464 0.579051 27.7246C0.578742 27.7311 0.578125 27.7375 0.578125 27.744V38.7344C0.578125 39.7548 1.40838 40.5851 2.42883 40.5851H30.7693C31.7898 40.5851 32.62 39.7548 32.62 38.7344V27.7338C32.62 27.727 32.6191 27.7206 32.6188 27.7138C32.6188 27.5439 32.5858 27.3735 32.5178 27.2117L28.5041 17.3906C28.2404 16.7598 27.6281 16.3522 26.9439 16.3522H25.6526V12.9387C25.7779 12.8309 25.8986 12.7173 26.0138 12.5975ZM26.9442 17.5662C27.1369 17.5662 27.3095 17.6811 27.3839 17.8593L31.3983 27.681C31.41 27.7098 31.4075 27.7372 31.3906 27.7629C31.3733 27.7888 31.3489 27.8018 31.3177 27.8018H28.7825C28.4471 27.8018 28.1751 28.0735 28.1751 28.4088C28.1751 28.7441 28.4471 29.0158 28.7825 29.0158H31.3177C31.3473 29.0158 31.3767 29.0149 31.4057 29.0127V38.7344C31.4057 39.0851 31.1204 39.3707 30.7693 39.3707H2.42883C2.07808 39.3707 1.79248 39.0851 1.79248 38.7344V29.0127C1.8215 29.0149 1.85084 29.0158 1.88048 29.0158H26.2188C26.5541 29.0158 26.8258 28.7441 26.8258 28.4088C26.8258 28.0735 26.5541 27.8015 26.2188 27.8015H1.88048C1.84929 27.8015 1.82459 27.7885 1.80761 27.7622C1.79032 27.7363 1.78816 27.7085 1.80051 27.6795L5.5245 17.8543C5.60015 17.6792 5.77213 17.5662 5.96294 17.5662H7.5453V24.8105H7.0871C6.75179 24.8105 6.48008 25.0822 6.48008 25.4175C6.48008 25.7528 6.75179 26.0245 7.0871 26.0245H26.0839C26.4189 26.0245 26.6909 25.7528 26.6909 25.4175C26.6909 25.0822 26.4189 24.8105 26.0839 24.8105H25.6526V17.5662H26.9442ZM17.9755 13.0137C17.3602 13.0137 16.8594 12.5132 16.8594 11.8978C16.8594 11.2825 17.3602 10.7817 17.9755 10.7817H20.5142C20.8495 10.7817 21.1215 10.5099 21.1215 10.1746C21.1215 9.83931 20.8495 9.5673 20.5142 9.5673H14.1691L17.5383 6.00327C18.1877 5.31659 19.1349 4.97541 20.0733 5.09089L24.0624 5.58182L27.6194 9.16776L25.1372 11.757C24.3715 12.5558 23.298 13.014 22.1914 13.014L17.9755 13.0137Z" fill="white"/>
<path d="M6.98274 31.5455C6.16237 31.5455 5.49513 32.2127 5.49513 33.0328V34.9418C5.49513 35.7622 6.16237 36.4295 6.98274 36.4295H26.2154C27.0358 36.4295 27.703 35.7622 27.703 34.9418V33.0328C27.703 32.2127 27.0358 31.5455 26.2154 31.5455H6.98274ZM26.4887 33.0328V34.9418C26.4887 35.0925 26.3661 35.2151 26.2154 35.2151H6.98274C6.83207 35.2151 6.70949 35.0925 6.70949 34.9418V33.0328C6.70949 32.8821 6.83207 32.7595 6.98274 32.7595H26.2154C26.3661 32.7595 26.4887 32.8821 26.4887 33.0328Z" fill="white"/>
</svg>
