<svg width="39" height="43" viewBox="0 0 39 43" fill="none" xmlns="http://www.w3.org/2000/svg">
<path d="M17.8936 9.46383H29.218V10.8794H17.8936V9.46383Z" fill="white"/>
<path d="M17.8936 13.0027H29.218V14.4183H17.8936V13.0027Z" fill="white"/>
<path d="M3.7381 18.6649H15.7703V20.0805H3.7381V18.6649Z" fill="white"/>
<path d="M3.7381 22.2038H12.9392V23.6193H3.7381V22.2038Z" fill="white"/>
<path d="M15.7703 7.3405H3.7381V15.8338H15.7703V7.3405ZM14.3547 14.4183H5.15365V8.75605H14.3547V14.4183Z" fill="white"/>
<path d="M32.7569 20.4924V5.21717H34.9355L34.8084 4.39604C34.6452 3.37861 34.1614 2.44136 33.4288 1.71976C32.5053 0.782512 31.2418 0.257209 29.9258 0.262739H5.15365C2.41655 0.265503 0.201984 2.48283 0.199219 5.21717V40.606H19.5635C23.1549 43.1053 27.8218 43.4564 31.7478 41.5211C35.6765 39.5885 38.2422 35.6737 38.4523 31.3026C38.6597 26.9315 36.4783 22.7899 32.7569 20.4924ZM29.9258 1.67829C31.3331 1.68382 32.6049 2.51601 33.1744 3.80162H9.90073C9.67402 3.0109 9.24548 2.29483 8.65659 1.71976C8.64 1.70594 8.62341 1.68935 8.60682 1.67829H29.9258ZM1.61477 39.1904V5.21717C1.61477 3.78503 2.47737 2.49389 3.80169 1.94647C5.12324 1.40182 6.64662 1.70594 7.65851 2.71784C8.17829 3.23208 8.52112 3.90115 8.63447 4.62275L8.734 5.21717H31.3414V19.7349C26.0469 17.3378 19.7985 19.0686 16.4919 23.8461C13.1853 28.6208 13.7658 35.0792 17.8715 39.1904H1.61477ZM32.7569 39.1904C32.5302 39.3535 32.3035 39.5167 32.063 39.666C31.9358 39.7434 31.8086 39.8208 31.6731 39.8982C31.2004 40.1747 30.7055 40.4124 30.194 40.606C26.7823 41.9165 22.9393 41.3801 20.0169 39.1904C19.8538 39.0715 19.6962 38.9416 19.5497 38.8144C16.1408 35.9418 14.8883 31.2445 16.4172 27.0587C17.9462 22.8701 21.9274 20.0832 26.3869 20.0805C28.1121 20.0722 29.8152 20.4924 31.3414 21.3053L31.3828 21.3274C34.5872 23.0332 36.6967 26.2624 36.9732 29.8815C37.2524 33.5006 35.6599 37.0118 32.7569 39.1904Z" fill="white"/>
<path d="M30.3848 30.6971L34.3909 26.691L30.3931 22.6932L26.3869 26.6993L22.3808 22.6932L18.3802 26.691L22.3863 30.6971L18.3802 34.7032L22.3808 38.7011L26.3869 34.6949L30.3931 38.7011L34.3909 34.7032L30.3848 30.6971ZM30.3931 36.7049L26.3869 32.7015L22.3808 36.7049L20.3764 34.7032L24.3825 30.6971L20.3764 26.691L22.3808 24.6893L26.3869 28.6954L30.3931 24.6893L32.3947 26.691L28.3886 30.6971L32.3947 34.7032L30.3931 36.7049Z" fill="white"/>
<path d="M3.7381 25.7427H12.9392V27.1582H3.7381V25.7427Z" fill="white"/>
</svg>
