<svg width="43" height="43" viewBox="0 0 43 43" fill="none" xmlns="http://www.w3.org/2000/svg">
<path d="M8.60168 22.4828H9.30682V23.8931H10.7171V22.4828H11.4223V21.0725H8.60168V22.4828Z" fill="white"/>
<path d="M36.797 23.4277L36.1856 19.4507C36.137 19.1165 35.9692 18.811 35.7131 18.5907C35.4571 18.3705 35.13 18.2501 34.7923 18.252H34.5624C34.6591 17.9915 34.7025 17.7143 34.6902 17.4367C34.6778 17.1592 34.61 16.8869 34.4906 16.636C34.3712 16.3851 34.2027 16.1608 33.9951 15.9761C33.7875 15.7915 33.5449 15.6504 33.2818 15.5611V14.7262C33.2818 14.4554 33.2729 14.1898 33.2551 13.9294C33.6297 13.8394 33.9819 13.6733 34.2897 13.4416C34.5976 13.2098 34.8545 12.9173 35.0447 12.5822C35.2348 12.247 35.3541 11.8764 35.3951 11.4933C35.4361 11.1101 35.398 10.7227 35.2831 10.3549C35.1682 9.98708 34.979 9.64681 34.7272 9.35514C34.4754 9.06348 34.1664 8.82665 33.8193 8.65933C33.4722 8.49201 33.0944 8.39777 32.7094 8.38245C32.3244 8.36713 31.9403 8.43106 31.581 8.57028C31.2956 8.09299 30.9771 7.63634 30.6277 7.2037C30.9767 6.72635 31.1653 6.15062 31.1664 5.5593C31.1689 4.97764 30.9908 4.40955 30.6566 3.93347C30.3224 3.4574 29.8486 3.09682 29.3007 2.90155C28.7528 2.70627 28.1578 2.68592 27.5978 2.84332C27.0379 3.00071 26.5406 3.32808 26.1747 3.78021C25.4996 3.47817 24.7974 3.24066 24.0776 3.07083C23.9899 2.39463 23.6591 1.77345 23.1469 1.32334C22.6347 0.873239 21.9762 0.625 21.2943 0.625C20.6125 0.625 19.9539 0.873239 19.4417 1.32334C18.9295 1.77345 18.5987 2.39463 18.5111 3.07083C17.7913 3.24066 17.0891 3.47817 16.414 3.78021C15.953 3.21028 15.2875 2.84311 14.5595 2.7571C13.8315 2.67108 13.0987 2.87302 12.5175 3.31981C11.9364 3.76661 11.5529 4.42286 11.4489 5.1485C11.3449 5.87414 11.5287 6.61168 11.961 7.2037C11.6116 7.63634 11.293 8.09299 11.0076 8.57028C10.6488 8.43281 10.2655 8.37034 9.88154 8.38673C9.49758 8.40312 9.12105 8.49801 8.77518 8.66556C8.42931 8.83311 8.12145 9.06975 7.87058 9.36089C7.61972 9.65204 7.43118 9.9915 7.31659 10.3583C7.202 10.7252 7.1638 11.1116 7.20435 11.4938C7.24489 11.8759 7.36332 12.2457 7.55232 12.5803C7.74133 12.915 7.9969 13.2073 8.30326 13.4393C8.60963 13.6714 8.9603 13.8382 9.33362 13.9294C9.31575 14.1898 9.30682 14.4554 9.30682 14.7262V15.5611C9.04372 15.6504 8.8012 15.7915 8.59359 15.9761C8.38597 16.1608 8.21749 16.3851 8.0981 16.636C7.97872 16.8869 7.91085 17.1592 7.89851 17.4367C7.88617 17.7143 7.92962 17.9915 8.02627 18.252H7.7964C7.45863 18.2501 7.13158 18.3705 6.87552 18.5907C6.61947 18.811 6.45166 19.1165 6.40302 19.4507L5.79166 23.4306C3.76352 24.3893 2.12225 26.01 1.138 28.0259C0.153744 30.0418 -0.114831 32.3328 0.376479 34.5216C0.86779 36.7105 2.08971 38.6669 3.8411 40.0687C5.59249 41.4706 7.76898 42.2344 10.0123 42.2344C12.2557 42.2344 14.4322 41.4706 16.1835 40.0687C17.9349 38.6669 19.1569 36.7105 19.6482 34.5216C20.1395 32.3328 19.8709 30.0418 18.8867 28.0259C17.9024 26.01 16.2611 24.3893 14.233 23.4306L13.6209 19.4507C13.5723 19.1165 13.4045 18.811 13.1484 18.5907C12.8924 18.3705 12.5653 18.2501 12.2275 18.252H11.9977C12.0943 17.9915 12.1378 17.7143 12.1254 17.4367C12.1131 17.1592 12.0452 16.8869 11.9258 16.636C11.8064 16.3851 11.638 16.1608 11.4304 15.9761C11.2227 15.7915 10.9802 15.6504 10.7171 15.5611V14.7262C10.7171 14.4442 10.7312 14.1748 10.7524 13.9097C11.208 13.7897 11.6258 13.5564 11.9669 13.2314C12.308 12.9064 12.5612 12.5003 12.703 12.051C12.8448 11.6017 12.8705 11.1239 12.7778 10.6619C12.685 10.2 12.4768 9.76913 12.1725 9.4094C12.4359 8.95525 12.7334 8.52175 13.0624 8.11264C13.5297 8.33504 14.0495 8.42347 14.564 8.36811C15.0785 8.31274 15.5675 8.11575 15.9768 7.79904C16.386 7.48232 16.6993 7.0583 16.882 6.57413C17.0646 6.08996 17.1094 5.56462 17.0113 5.05653C17.5481 4.81635 18.1046 4.62289 18.6747 4.47831C18.881 5.00469 19.2412 5.45667 19.7083 5.77526C20.1753 6.09385 20.7276 6.26426 21.2929 6.26426C21.8583 6.26426 22.4105 6.09385 22.8776 5.77526C23.3447 5.45667 23.7048 5.00469 23.9111 4.47831C24.4812 4.62289 25.0377 4.81635 25.5746 5.05653C25.4789 5.56412 25.5253 6.08826 25.7087 6.57114C25.8921 7.05401 26.2053 7.47684 26.6138 7.79298C27.0223 8.10911 27.5101 8.30626 28.0236 8.36266C28.537 8.41907 29.056 8.33255 29.5234 8.11264C29.8524 8.52175 30.1499 8.95525 30.4133 9.4094C30.1091 9.76913 29.9009 10.2 29.8081 10.6619C29.7153 11.1239 29.741 11.6017 29.8828 12.051C30.0246 12.5003 30.2779 12.9064 30.6189 13.2314C30.96 13.5564 31.3779 13.7897 31.8335 13.9097C31.8546 14.1748 31.8687 14.4456 31.8687 14.7262V15.5611C31.6059 15.6507 31.3637 15.792 31.1563 15.9767C30.949 16.1615 30.7809 16.3859 30.6618 16.6368C30.5426 16.8876 30.475 17.1598 30.4629 17.4372C30.4507 17.7146 30.4943 17.9917 30.591 18.252H30.3611C30.0234 18.2501 29.6963 18.3705 29.4403 18.5907C29.1842 18.811 29.0164 19.1165 28.9678 19.4507L28.3557 23.4313C26.3286 24.39 24.6882 26.0102 23.7046 28.0254C22.7211 30.0406 22.4528 32.3306 22.9441 34.5185C23.4354 36.7064 24.6569 38.6619 26.4076 40.063C28.1584 41.4642 30.334 42.2277 32.5763 42.2277C34.8187 42.2277 36.9943 41.4642 38.745 40.063C40.4958 38.6619 41.7173 36.7064 42.2086 34.5185C42.6999 32.3306 42.4316 30.0406 41.4481 28.0254C40.4645 26.0102 38.8241 24.39 36.797 23.4313V23.4277ZM4.37079 32.3549C4.37079 31.2392 4.70164 30.1485 5.3215 29.2208C5.94136 28.2931 6.82239 27.5701 7.85318 27.1431C8.88398 26.7162 10.0182 26.6045 11.1125 26.8221C12.2068 27.0398 13.212 27.5771 14.0009 28.366C14.7898 29.1549 15.3271 30.1601 15.5448 31.2544C15.7624 32.3486 15.6507 33.4829 15.2237 34.5137C14.7968 35.5445 14.0737 36.4255 13.146 37.0454C12.2184 37.6652 11.1277 37.9961 10.012 37.9961C8.51635 37.9944 7.08247 37.3995 6.02491 36.342C4.96734 35.2844 4.37247 33.8505 4.37079 32.3549ZM1.5502 32.3549C1.54862 30.9204 1.91224 29.5092 2.60678 28.2541C3.30132 26.999 4.30394 25.9413 5.52018 25.1807L5.20498 27.2073C3.89414 28.4245 3.09708 30.0959 2.9764 31.8806C2.85571 33.6654 3.4205 35.4289 4.55554 36.8114L3.55846 37.8113C2.26599 36.2866 1.5546 34.3537 1.5502 32.3549ZM12.8974 24.0215C12.9159 24.1403 12.9645 24.2525 13.0385 24.3473C13.1126 24.4421 13.2097 24.5163 13.3205 24.563C15.0405 25.2907 16.4714 26.567 17.3902 28.1929C18.3091 29.8188 18.6642 31.703 18.4003 33.5518C18.1363 35.4006 17.2682 37.1102 15.9311 38.4141C14.5941 39.718 12.8632 40.5429 11.0083 40.7603C9.8565 40.8982 8.68856 40.7962 7.57811 40.4605C6.46765 40.1248 5.43876 39.5628 4.55624 38.8098L5.55473 37.8113C6.53849 38.6167 7.72168 39.141 8.97907 39.329C10.2365 39.5169 11.5213 39.3614 12.6975 38.8789C13.8737 38.3964 14.8977 37.6049 15.6609 36.5882C16.4241 35.5714 16.8983 34.3672 17.0331 33.103C17.168 31.8388 16.9586 30.5617 16.427 29.4068C15.8955 28.2519 15.0616 27.2622 14.0136 26.5424C12.9656 25.8226 11.7425 25.3996 10.4738 25.318C9.20507 25.2365 7.93789 25.4994 6.80637 26.0791L7.79358 19.6622H12.2247L12.8974 24.0215ZM9.30682 17.5468C9.30682 17.4073 9.34818 17.271 9.42566 17.155C9.50314 17.0391 9.61327 16.9487 9.74212 16.8953C9.87097 16.842 10.0128 16.828 10.1495 16.8552C10.2863 16.8824 10.412 16.9496 10.5106 17.0482C10.6092 17.1468 10.6764 17.2725 10.7036 17.4092C10.7308 17.546 10.7168 17.6878 10.6634 17.8167C10.6101 17.9455 10.5197 18.0556 10.4037 18.1331C10.2878 18.2106 10.1514 18.252 10.012 18.252C9.82495 18.252 9.6456 18.1777 9.51336 18.0454C9.38111 17.9132 9.30682 17.7338 9.30682 17.5468ZM10.012 12.6108C9.73304 12.6108 9.46037 12.5281 9.22845 12.3731C8.99653 12.2181 8.81577 11.9979 8.70903 11.7402C8.60229 11.4825 8.57436 11.1989 8.62877 10.9253C8.68319 10.6518 8.81751 10.4005 9.01474 10.2032C9.21198 10.006 9.46327 9.8717 9.73684 9.81728C10.0104 9.76287 10.294 9.79079 10.5517 9.89754C10.8094 10.0043 11.0296 10.185 11.1846 10.417C11.3396 10.6489 11.4223 10.9215 11.4223 11.2005C11.4223 11.5745 11.2737 11.9332 11.0092 12.1977C10.7447 12.4622 10.386 12.6108 10.012 12.6108ZM14.2429 6.96959C13.9639 6.96959 13.6913 6.88688 13.4593 6.73192C13.2274 6.57695 13.0467 6.35669 12.9399 6.099C12.8332 5.8413 12.8052 5.55773 12.8597 5.28416C12.9141 5.01059 13.0484 4.7593 13.2456 4.56207C13.4429 4.36484 13.6942 4.23052 13.9677 4.1761C14.2413 4.12169 14.5249 4.14961 14.7826 4.25636C15.0403 4.3631 15.2605 4.54386 15.4155 4.77578C15.5704 5.0077 15.6532 5.28037 15.6532 5.5593C15.6532 5.93333 15.5046 6.29205 15.2401 6.55653C14.9756 6.82101 14.6169 6.96959 14.2429 6.96959ZM21.2943 4.85415C21.0154 4.85415 20.7427 4.77144 20.5108 4.61647C20.2789 4.46151 20.0981 4.24125 19.9914 3.98355C19.8846 3.72585 19.8567 3.44229 19.9111 3.16872C19.9656 2.89515 20.0999 2.64386 20.2971 2.44663C20.4943 2.24939 20.7456 2.11508 21.0192 2.06066C21.2928 2.00624 21.5763 2.03417 21.834 2.14091C22.0917 2.24765 22.312 2.42842 22.467 2.66034C22.6219 2.89226 22.7046 3.16493 22.7046 3.44386C22.7046 3.81789 22.556 4.1766 22.2916 4.44108C22.0271 4.70557 21.6684 4.85415 21.2943 4.85415ZM32.5767 37.9961C31.461 37.9961 30.3703 37.6652 29.4426 37.0454C28.5149 36.4255 27.7919 35.5445 27.3649 34.5137C26.938 33.4829 26.8262 32.3486 27.0439 31.2544C27.2616 30.1601 27.7988 29.1549 28.5878 28.366C29.3767 27.5771 30.3819 27.0398 31.4762 26.8221C32.5704 26.6045 33.7047 26.7162 34.7355 27.1431C35.7663 27.5701 36.6473 28.2931 37.2672 29.2208C37.887 30.1485 38.2179 31.2392 38.2179 32.3549C38.2162 33.8505 37.6213 35.2844 36.5638 36.342C35.5062 37.3995 34.0723 37.9944 32.5767 37.9961ZM26.9355 5.5593C26.9355 5.28037 27.0182 5.0077 27.1732 4.77578C27.3282 4.54386 27.5484 4.3631 27.8061 4.25636C28.0638 4.14961 28.3474 4.12169 28.6209 4.1761C28.8945 4.23052 29.1458 4.36484 29.343 4.56207C29.5403 4.7593 29.6746 5.01059 29.729 5.28416C29.7834 5.55773 29.7555 5.8413 29.6488 6.099C29.542 6.35669 29.3613 6.57695 29.1293 6.73192C28.8974 6.88688 28.6247 6.96959 28.3458 6.96959C27.9718 6.96959 27.6131 6.82101 27.3486 6.55653C27.0841 6.29205 26.9355 5.93333 26.9355 5.5593ZM31.1664 11.2005C31.1664 10.9215 31.2491 10.6489 31.4041 10.417C31.559 10.185 31.7793 10.0043 32.037 9.89754C32.2947 9.79079 32.5783 9.76287 32.8518 9.81728C33.1254 9.8717 33.3767 10.006 33.5739 10.2032C33.7712 10.4005 33.9055 10.6518 33.9599 10.9253C34.0143 11.1989 33.9864 11.4825 33.8796 11.7402C33.7729 11.9979 33.5921 12.2181 33.3602 12.3731C33.1283 12.5281 32.8556 12.6108 32.5767 12.6108C32.2027 12.6108 31.844 12.4622 31.5795 12.1977C31.315 11.9332 31.1664 11.5745 31.1664 11.2005ZM31.8716 17.5468C31.8716 17.4073 31.9129 17.271 31.9904 17.155C32.0679 17.0391 32.178 16.9487 32.3069 16.8953C32.4357 16.842 32.5775 16.828 32.7143 16.8552C32.8511 16.8824 32.9767 16.9496 33.0753 17.0482C33.1739 17.1468 33.2411 17.2725 33.2683 17.4092C33.2955 17.546 33.2815 17.6878 33.2282 17.8167C33.1748 17.9455 33.0844 18.0556 32.9685 18.1331C32.8525 18.2106 32.7162 18.252 32.5767 18.252C32.3897 18.252 32.2103 18.1777 32.0781 18.0454C31.9458 17.9132 31.8716 17.7338 31.8716 17.5468ZM31.5831 40.7603C29.7283 40.5429 27.9974 39.718 26.6604 38.4141C25.3233 37.1102 24.4551 35.4006 24.1912 33.5518C23.9273 31.703 24.2824 29.8188 25.2013 28.1929C26.1201 26.567 27.551 25.2907 29.271 24.563C29.3818 24.5163 29.4789 24.4421 29.5529 24.3473C29.627 24.2525 29.6756 24.1403 29.6941 24.0215L30.3611 19.6622H34.7923L35.7795 26.0791C34.6478 25.4993 33.3804 25.2362 32.1115 25.3178C30.8426 25.3994 29.6193 25.8226 28.5713 26.5426C27.5232 27.2626 26.6893 28.2526 26.1579 29.4078C25.6265 30.5629 25.4173 31.8403 25.5525 33.1047C25.6878 34.369 26.1623 35.5732 26.926 36.5899C27.6897 37.6066 28.7141 38.3978 29.8907 38.8799C31.0674 39.3619 32.3525 39.5169 33.6099 39.3283C34.8674 39.1397 36.0505 38.6145 37.0339 37.8085L38.0324 38.807C37.1504 39.56 36.1221 40.1222 35.0121 40.4584C33.9022 40.7946 32.7347 40.8973 31.5831 40.7603ZM39.0302 37.8113L38.0331 36.8143C39.1682 35.4317 39.733 33.6682 39.6123 31.8835C39.4916 30.0987 38.6945 28.4273 37.3837 27.2101L37.0685 25.1807C38.0969 25.8235 38.9748 26.6801 39.6426 27.6924C40.3103 28.7047 40.7523 29.849 40.9384 31.0473C41.1246 32.2457 41.0505 33.47 40.7212 34.6372C40.3919 35.8044 39.8152 36.8869 39.0302 37.8113Z" fill="white"/>
<path d="M31.8716 23.8931H33.2818V22.4828H33.987V21.0725H31.1664V22.4828H31.8716V23.8931Z" fill="white"/>
</svg>
